<?xml version="1.0" encoding="UTF-8"?>
<svg width="1921px" height="368px" viewBox="0 0 1921 368" version="1.1" xmlns="http://www.w3.org/2000/svg" xmlns:xlink="http://www.w3.org/1999/xlink">
    <!-- Generator: Sketch 46.2 (44496) - http://www.bohemiancoding.com/sketch -->
    <title>cosmos-banner</title>
    <desc>Created with Sketch.</desc>
    <defs></defs>
    <g id="Page-1" stroke="none" stroke-width="1" fill="none" fill-rule="evenodd">
        <g id="cosmos-banner">
            <polygon id="Fill-1" fill="#102037" points="1 365 1921 365 1921 0 1 0"></polygon>
            <g id="right" transform="translate(1200.000000, 0.000000)">
                <path d="M721,0 L721,218.851705 C666.260773,226.87892 607.474025,231.15592 546.300636,230.995655 C252.227327,230.194327 13.716707,126.909433 12,0 L721,0 Z" id="Fill-4" fill="#1B3556"></path>
                <path d="M468,82 L468,4.31285218 C487.455974,1.462869 508.350558,-0.0548793748 530.093427,0.00151675128 C634.615957,0.285476193 719.389831,36.949884 720,82 L468,82 Z" id="Fill-10" fill="#142946" transform="translate(594.000000, 41.000000) scale(-1, -1) translate(-594.000000, -41.000000) "></path>
                <g id="green-moon" transform="translate(293.000000, 19.000000)">
                    <polygon id="Fill-31" fill="#FFFFFF" points="48.2580486 44.88 45.3875527 37.1973711 37.4 35.3385111 45.0820125 32.4681543 46.9419514 24.48 49.8124473 32.1626289 57.8 34.0224777 50.1179875 36.8928344"></polygon>
                    <path d="M85,42.5 C85,65.972369 65.9721456,85 42.5004991,85 C19.0278544,85 0,65.972369 0,42.5 C0,19.027631 19.0278544,0 42.5004991,0 C65.9721456,0 85,19.027631 85,42.5" id="Fill-32" fill="#40BDA8"></path>
                    <path d="M80.24,42.84 C80.24,63.4955719 63.4955719,80.24 42.84,80.24 C22.1844281,80.24 5.44,63.4955719 5.44,42.84 C5.44,22.1844281 22.1844281,5.44 42.84,5.44 C63.4955719,5.44 80.24,22.1844281 80.24,42.84" id="Fill-33" fill="#40BDA8"></path>
                    <path d="M73.44,42.84 C73.44,59.7399803 59.7399803,73.44 42.84,73.44 C25.9400197,73.44 12.24,59.7399803 12.24,42.84 C12.24,25.9400197 25.9400197,12.24 42.84,12.24 C59.7399803,12.24 73.44,25.9400197 73.44,42.84" id="Fill-34" fill="#40BDA8"></path>
                    <path d="M54.7229875,60.7104911 C37.9158596,60.7104911 24.2892977,47.0846917 24.2892977,30.2762677 C24.2892977,24.9705581 25.6502514,19.9833112 28.0376787,15.64 C18.6221621,20.814519 12.24,30.8240637 12.24,42.3257766 C12.24,59.1342006 25.8665619,72.76 42.6746913,72.76 C54.1762025,72.76 64.1845703,66.377726 69.36,56.9630457 C65.016765,59.3505149 60.0296055,60.7104911 54.7229875,60.7104911" id="Fill-35" fill="#36A895"></path>
                </g>
                <polygon id="Fill-24" fill="#FFFFFF" transform="translate(650.000000, 79.000000) rotate(22.000000) translate(-650.000000, -79.000000) " points="662 81.7592436 652.142942 82.4215098 647.240024 91 646.577725 81.1422403 638 76.2395652 647.857058 75.5772991 652.759976 67 653.422275 76.8577597"></polygon>
                <polygon id="Fill-24-Copy" fill="#FFFFFF" transform="translate(472.000000, 56.000000) rotate(-39.000000) translate(-472.000000, -56.000000) " points="484 58.7592436 474.142942 59.4215098 469.240024 68 468.577725 58.1422403 460 53.2395652 469.857058 52.5772991 474.759976 44 475.422275 53.8577597"></polygon>
                <polygon id="Fill-24-Copy-8" fill="#FFFFFF" transform="translate(160.000000, 38.000000) rotate(-19.000000) translate(-160.000000, -38.000000) " points="172 40.7592436 162.142942 41.4215098 157.240024 50 156.577725 40.1422403 148 35.2395652 157.857058 34.5772991 162.759976 26 163.422275 35.8577597"></polygon>
                <polygon id="Fill-24-Copy-2" fill="#FFFFFF" transform="translate(202.500000, 123.500000) rotate(-13.000000) translate(-202.500000, -123.500000) " points="206 124.304779 203.125025 124.49794 201.695007 127 201.501836 124.12482 199 122.694873 201.874975 122.501712 203.304993 120 203.498164 122.87518"></polygon>
                <polygon id="Fill-24-Copy-9" fill="#FFFFFF" transform="translate(291.000000, 211.000000) rotate(-13.000000) translate(-291.000000, -211.000000) " points="297 212.379622 292.071471 212.710755 289.620012 217 289.288862 212.07112 285 209.619783 289.928529 209.28865 292.379988 205 292.711138 209.92888"></polygon>
                <polygon id="Fill-24-Copy-10" fill="#FFFFFF" transform="translate(474.500000, 97.500000) rotate(-13.000000) translate(-474.500000, -97.500000) " points="480 98.7646533 475.482182 99.068192 473.235011 103 472.931457 98.4818601 469 96.2348007 473.517818 95.9312621 475.764989 92 476.068543 96.5181399"></polygon>
                <polygon id="Fill-24-Copy-5" fill="#FFFFFF" transform="translate(553.000000, 150.000000) rotate(-87.000000) translate(-553.000000, -150.000000) " points="565 152.759244 555.142942 153.42151 550.240024 162 549.577725 152.14224 541 147.239565 550.857058 146.577299 555.759976 138 556.422275 147.85776"></polygon>
                <polygon id="Fill-24-Copy-7" fill="#FFFFFF" transform="translate(513.000000, 250.000000) rotate(-15.000000) translate(-513.000000, -250.000000) " points="525 252.759244 515.142942 253.42151 510.240024 262 509.577725 252.14224 501 247.239565 510.857058 246.577299 515.759976 238 516.422275 247.85776"></polygon>
                <polygon id="Fill-24-Copy-4" fill="#FFFFFF" points="17 64.4544642 10.0179174 64.9235694 6.54501688 71 6.07588843 64.0174202 0 60.544692 6.98208259 60.0755869 10.4549831 54 10.9241116 60.9825798"></polygon>
                <polygon id="Fill-24-Copy-3" fill="#FFFFFF" points="378 172.759244 368.142942 173.42151 363.240024 182 362.577725 172.14224 354 167.239565 363.857058 166.577299 368.759976 158 369.422275 167.85776"></polygon>
                <g id="sun" transform="translate(552.000000, 214.000000)">
                    <polygon id="Fill-27" fill="#FFFFFF" points="95.3384209 23.0508475 97.6398924 25.5326655 100.606742 23.8977958 98.1183007 26.1931421 99.7575331 29.1525424 97.4560616 26.6707244 94.488764 28.3051469 96.9772049 26.0098006"></polygon>
                    <polygon id="Fill-28" fill="#FFFFFF" points="113.012192 72.5423729 115.314281 75.0243728 118.280899 73.3893833 115.792724 75.6848978 117.431628 78.6440678 115.130436 76.1620679 112.162921 77.7970574 114.651545 75.5015429"></polygon>
                    <polygon id="Fill-41" fill="#FFFFFF" points="69.3370787 59.9697448 67.7231397 59.3445015 66.3080259 60.3389831 66.9350205 58.729552 65.9382022 57.3183907 67.5512436 57.9436341 68.9668062 56.9491525 68.3393628 58.5585836"></polygon>
                    <polygon id="Fill-42" fill="#FFFFFF" points="78.4189242 95.5932203 76.9452154 92.3436074 73.4157303 91.7699692 76.674015 90.3001826 77.249184 86.779661 78.7228928 90.029704 82.252809 90.6033422 78.9940931 92.0731288"></polygon>
                    <polygon id="Fill-43" fill="#FFFFFF" points="55.4016854 58.3050847 55.8063924 61.6302684 59.1404494 62.0338983 55.8063924 62.4379713 55.4016854 65.7627119 54.9969784 62.4379713 51.6629213 62.0338983 54.9969784 61.6302684"></polygon>
                    <path d="M121,60 C121,93.1368927 93.9133697,120 60.4997834,120 C27.0866303,120 0,93.1368927 0,60 C0,26.8631073 27.0866303,0 60.4997834,0 C93.9133697,0 121,26.8631073 121,60" id="Fill-44" fill="#FE9355"></path>
                    <path d="M112.162921,60.3387673 C112.162921,88.7956465 89.0325043,111.864407 60.5,111.864407 C31.9674957,111.864407 8.83707865,88.7956465 8.83707865,60.3387673 C8.83707865,31.8823196 31.9674957,8.81355932 60.5,8.81355932 C89.0325043,8.81355932 112.162921,31.8823196 112.162921,60.3387673" id="Fill-45" fill="#FE9355"></path>
                    <path d="M104.005618,59.9978493 C104.005618,61.9463964 103.874777,63.8605321 103.622659,65.7402564 C103.527028,66.4542935 103.410097,67.1640292 103.279691,67.8694635 C102.644614,71.2804963 101.601801,74.549582 100.202109,77.6251034 C99.9060877,78.283222 99.5892011,78.9284363 99.2631861,79.5693491 C97.610942,82.7653105 95.5683492,85.7289948 93.1949598,88.4001819 C92.5994391,89.0712047 91.982184,89.7250219 91.3475414,90.3573319 C83.4666716,98.1988361 72.5556008,103.050847 60.4978266,103.050847 C50.6565198,103.050847 41.5759147,99.8161732 34.2857841,94.3619618 C33.4511856,93.7382547 32.6431031,93.088739 31.8563202,92.4091133 C27.8002586,88.8905447 24.4101371,84.6450348 21.8972133,79.8704491 C21.3847177,78.9026277 20.915256,77.9176005 20.4805693,76.9067648 C18.8587533,73.1602206 17.7637775,69.1426863 17.2808406,64.9358892 C17.1895563,64.1788378 17.124788,63.417485 17.0769725,62.6475293 C17.0204632,61.7700378 16.994382,60.888245 16.994382,59.9978493 C16.994382,57.2664422 17.2508472,54.5995565 17.7420431,52.0100965 C17.8763613,51.2960594 18.0289364,50.5906251 18.2023764,49.8937937 C18.9939408,46.6204066 20.1675949,43.4889666 21.6759577,40.5553923 C22.0019728,39.910178 22.3453753,39.277868 22.7100774,38.6541609 C24.7226768,35.1700038 27.2182131,31.9869467 30.0997512,29.2039224 C30.8913157,28.4339667 31.7124389,27.7027239 32.5605126,26.9972896 C40.1192796,20.7258068 49.8649553,16.9491525 60.4978266,16.9491525 C68.9090141,16.9491525 76.7638027,19.3106368 83.4188561,23.4012953 C84.2921416,23.9389739 85.1484744,24.5067625 85.978726,25.104661 C90.5429363,28.3694453 94.4377291,32.4902138 97.4240267,37.2260866 C98.0586693,38.2283195 98.6541901,39.2606623 99.2018953,40.3145123 C101.180154,44.1169751 102.60158,48.2463465 103.366194,52.5993922 C103.497035,53.3521422 103.610053,54.1134951 103.701337,54.8834508 L103.701337,54.8877522 C103.901293,56.5653093 104.005618,58.268675 104.005618,59.9978493" id="Fill-46" fill="#E8854D"></path>
                    <path d="M74.1719335,89.4397574 C50.1952021,89.4397574 30.7585128,70.218752 30.7585128,46.5090421 C30.7585128,38.1394206 33.1827313,30.3312624 37.3710036,23.7288136 C25.1323652,31.3203644 16.994382,44.7796148 16.994382,60.1201321 C16.994382,83.8302709 36.4306376,103.050847 60.4078028,103.050847 C75.9208061,103.050847 89.5309563,95.0033489 97.2078652,82.9003606 C90.5316133,87.0424933 82.6356616,89.4397574 74.1719335,89.4397574" id="Fill-47" fill="#E36F3D"></path>
                    <path d="M86.3314607,25.5186441 C83.7340898,25.8757062 82.0520862,26.6576271 80.2955004,27.4711864 C77.7978616,28.6327684 75.2178355,29.8305085 70.1184897,29.8305085 C65.0195776,29.8305085 62.4391178,28.6327684 59.9419127,27.4711864 C57.5479086,26.359322 55.2844235,25.3107345 50.6490488,25.3107345 C46.0093379,25.3107345 43.7458528,26.359322 41.352716,27.4711864 C38.8546436,28.6327684 36.2750511,29.8305085 31.1757053,29.8305085 C30.9758075,29.8305085 30.7811131,29.8305085 30.5898876,29.8259887 C31.3795057,29.0169492 32.1986098,28.2485876 33.0441646,27.5073446 C36.4697455,27.2677966 38.4210258,26.359322 40.4720382,25.4101695 C42.9653407,24.2485876 45.549703,23.0508475 50.6490488,23.0508475 C55.7440584,23.0508475 58.3284207,24.2485876 60.8264931,25.4101695 C63.2196299,26.5220339 65.483115,27.5706215 70.1184897,27.5706215 C74.7586342,27.5706215 77.0177831,26.5220339 79.4156898,25.4101695 C80.7291182,24.8 82.0646612,24.1762712 83.7774516,23.7288136 C84.6490235,24.2937853 85.5032506,24.8903955 86.3314607,25.5186441" id="Fill-48" fill="#E99D4D"></path>
                    <path d="M99.247191,40.6418079 C99.0347169,40.5468927 98.8218083,40.4519774 98.6128103,40.3525424 C96.2104193,39.240678 93.9466361,38.1920904 89.2974077,38.1920904 C84.6477448,38.1920904 82.3839616,39.240678 79.9811361,40.3525424 C77.4783739,41.5096045 74.8930553,42.7118644 69.7832491,42.7118644 C64.6738774,42.7118644 62.0881243,41.5096045 59.5857966,40.3525424 C57.1868816,39.240678 54.9187534,38.1920904 50.27387,38.1920904 C45.6246416,38.1920904 43.3565134,39.240678 40.9584674,40.3525424 C38.4552707,41.5096045 35.8703866,42.7118644 30.7605804,42.7118644 C26.4502677,42.7118644 23.9340358,41.8576271 21.752809,40.8949153 C22.0786895,40.2169492 22.4219503,39.5525424 22.7869364,38.8971751 C24.7730694,39.7559322 26.9803667,40.4519774 30.7605804,40.4519774 C35.4093743,40.4519774 37.6731575,39.3988701 40.075983,38.2870056 C42.5744002,37.1299435 45.1640638,35.9322034 50.27387,35.9322034 C55.3793311,35.9322034 57.9689948,37.1299435 60.4721915,38.2870056 C62.8702375,39.3988701 65.1383657,40.4519774 69.7832491,40.4519774 C74.432912,40.4519774 76.6966952,39.3988701 79.0995207,38.2870056 C81.6022829,37.1299435 84.187167,35.9322034 89.2974077,35.9322034 C93.0684968,35.9322034 95.4674118,36.5875706 97.470056,37.3966102 C98.1044367,38.4497175 98.6997118,39.5344633 99.247191,40.6418079" id="Fill-49" fill="#E99D4D"></path>
                    <path d="M103.325843,55.7740113 C101.238151,55.3220339 99.7087644,54.6124294 98.2101307,53.9163842 C95.8153485,52.8045198 93.5587352,51.7514124 88.9242319,51.7514124 C84.2897285,51.7514124 82.0331152,52.8045198 79.6379,53.9163842 C77.1430645,55.0734463 74.5659342,56.2711864 69.4723118,56.2711864 C64.3786895,56.2711864 61.8015591,55.0734463 59.3067237,53.9163842 C56.9158397,52.8045198 54.6548951,51.7514124 50.0242899,51.7514124 C45.3897866,51.7514124 43.1292751,52.8045198 40.7383912,53.9163842 C38.2431226,55.0734463 35.6664254,56.2711864 30.572803,56.2711864 C25.4791807,56.2711864 22.9016172,55.0734463 20.4072149,53.9163842 C19.519296,53.5050847 18.6530337,53.0983051 17.6741573,52.7548023 C17.808428,52.0045198 17.9600239,51.2632768 18.1332763,50.5310734 C19.2983991,50.9242938 20.3028303,51.3943503 21.2908024,51.8508475 C23.6816864,52.9627119 25.942631,54.0112994 30.572803,54.0112994 C35.2068732,54.0112994 37.4634865,52.9627119 39.8591349,51.8508475 C42.3496391,50.6937853 44.9311007,49.4915254 50.0242899,49.4915254 C55.113581,49.4915254 57.6950427,50.6937853 60.1903112,51.8508475 C62.5811952,52.9627119 64.8417067,54.0112994 69.4723118,54.0112994 C74.1068152,54.0112994 76.3634285,52.9627119 78.7586437,51.8508475 C81.2534792,50.6937853 83.8301764,49.4915254 88.9242319,49.4915254 C94.0178542,49.4915254 96.5949846,50.6937853 99.08982,51.8508475 C100.315581,52.420339 101.502361,52.9717514 102.991899,53.3740113 C103.122271,54.1649718 103.234885,54.9649718 103.325843,55.7740113" id="Fill-50" fill="#E99D4D"></path>
                    <path d="M103.325843,66.3231638 C103.230449,67.0734463 103.113808,67.819209 102.983726,68.560452 C101.106201,68.1039548 99.6796285,67.4440678 98.2829754,66.7932203 C95.8855537,65.6813559 93.6264532,64.6327684 88.9868418,64.6327684 C84.3467968,64.6327684 82.0881299,65.6813559 79.6898411,66.7932203 C77.1922559,67.9548023 74.6122851,69.1525424 69.5134822,69.1525424 C64.4142458,69.1525424 61.8342749,67.9548023 59.3366897,66.7932203 C56.942737,65.6813559 54.679734,64.6327684 50.0440251,64.6327684 C45.4044137,64.6327684 43.1409771,65.6813559 40.7478916,66.7932203 C38.2498727,67.9548023 35.6703355,69.1525424 30.5710991,69.1525424 C25.471429,69.1525424 22.8914582,67.9548023 20.393873,66.7932203 C19.3709904,66.3186441 18.3732572,65.8531073 17.198178,65.4779661 C17.1071202,64.6824859 17.0425126,63.8824859 16.994382,63.0734463 C18.6728807,63.520904 19.9867146,64.1310734 21.2784344,64.7322034 C23.6723872,65.8440678 25.9358238,66.8926554 30.5710991,66.8926554 C35.2102769,66.8926554 37.4693774,65.8440678 39.8672326,64.7322034 C42.3604817,63.5706215 44.9447886,62.3728814 50.0440251,62.3728814 C55.1389254,62.3728814 57.7232324,63.5706215 60.2212512,64.7322034 C62.6143367,65.8440678 64.8777733,66.8926554 69.5134822,66.8926554 C74.1530936,66.8926554 76.4121941,65.8440678 78.8100494,64.7322034 C81.3076346,63.5706215 83.8871718,62.3728814 88.9868418,62.3728814 C94.0856447,62.3728814 96.6660491,63.5706215 99.1632007,64.7322034 C100.460124,65.3333333 101.712819,65.9163842 103.325843,66.3231638" id="Fill-51" fill="#E99D4D"></path>
                    <path d="M99.9269663,77.9525424 C99.6316421,78.6440678 99.3155021,79.3220339 98.9902552,79.9954802 C98.7560775,79.8870056 98.5262363,79.7830508 98.2959615,79.6745763 C95.8982414,78.5627119 93.6388596,77.5141243 88.9986706,77.5141243 C84.3584815,77.5141243 82.0990997,78.5627119 79.7005123,79.6745763 C77.2030498,80.8316384 74.622324,82.0338983 69.5228864,82.0338983 C64.423015,82.0338983 61.842723,80.8316384 59.3448268,79.6745763 C56.950576,78.5627119 54.6872912,77.5141243 50.0510051,77.5141243 C45.4108161,77.5141243 43.1470977,78.5627119 40.7537142,79.6745763 C38.2553843,80.8316384 35.675526,82.0338983 30.5756546,82.0338983 C26.4163973,82.0338983 23.9362813,81.2338983 21.8065646,80.3118644 C21.2952765,79.2949153 20.826921,78.259887 20.3932584,77.1977401 C20.6920519,77.3378531 20.9873761,77.4734463 21.2818329,77.6090395 C23.6760838,78.720904 25.9398022,79.7740113 30.5756546,79.7740113 C35.21541,79.7740113 37.4747918,78.720904 39.8733792,77.6090395 C42.3669388,76.4519774 44.9511338,75.2542373 50.0510051,75.2542373 C55.1465399,75.2542373 57.7311685,76.4519774 60.2294984,77.6090395 C62.6228819,78.720904 64.8866003,79.7740113 69.5228864,79.7740113 C74.1630754,79.7740113 76.4224572,78.720904 78.820611,77.6090395 C81.3185072,76.4519774 83.8983655,75.2542373 88.9986706,75.2542373 C94.0985419,75.2542373 96.6788339,76.4519774 99.1767301,77.6090395 C99.4282544,77.7265537 99.675442,77.839548 99.9269663,77.9525424" id="Fill-52" fill="#E99D4D"></path>
                    <path d="M93.1292135,88.420339 C92.5352351,89.1254237 91.9195786,89.8124294 91.2865798,90.4768362 C90.6449097,90.4225989 89.9512123,90.3954802 89.1924807,90.3954802 C84.5533793,90.3954802 82.2945272,91.4485876 79.896502,92.560452 C77.3996249,93.7175141 74.8199377,94.9152542 69.7212618,94.9152542 C64.6225859,94.9152542 62.0428986,93.7175141 59.545588,92.560452 C57.152332,91.4485876 54.8891442,90.3954802 50.2539448,90.3954802 C45.6148435,90.3954802 43.3516557,91.4485876 40.9588332,92.560452 C39.1292063,93.4101695 37.2518877,94.2775141 34.3726099,94.6847458 C33.5406066,94.0293785 32.7341834,93.3468927 31.9494382,92.6327684 C35.8207033,92.4700565 37.8892222,91.5073446 40.0787046,90.4949153 C42.5716797,89.3333333 45.1557025,88.1355932 50.2539448,88.1355932 C55.3482851,88.1355932 57.932308,89.3333333 60.4300522,90.4949153 C62.8233082,91.6067797 65.0860624,92.6553672 69.7212618,92.6553672 C74.3603631,92.6553672 76.6192153,91.6067797 79.016807,90.4949153 C81.5141176,89.3333333 84.0933713,88.1355932 89.1924807,88.1355932 C90.7051746,88.1355932 91.9976196,88.239548 93.1292135,88.420339" id="Fill-53" fill="#E99D4D"></path>
                </g>
            </g>
            <g id="left" transform="translate(0.000000, 16.000000)">
                <path d="M0.933799542,348 L0.933799542,203.36391 L0.933799542,55.1895988 C94.4622965,44.1075469 266.732802,55.082533 305.069675,63.130119 C551.395025,114.806467 746.715084,239.674323 756,348 L0.933799542,348 Z" id="Fill-6" fill="#142946"></path>
                <path d="M1,349 L1,200.257534 C49.4855214,194.800859 101.556153,191.894926 155.740763,192.002904 C416.217544,192.546582 627.479419,262.74551 629,349 L1,349 Z" id="Fill-8" fill="#1B3556"></path>
                <g id="purple-moon" transform="translate(209.000000, 0.000000)">
                    <polygon id="Fill-36" fill="#FFFFFF" points="46.0992282 42.5009224 43.3588235 35.1681035 35.7352941 33.3933459 43.0701459 30.6529412 44.8449035 23.0294118 47.5832753 30.3601976 55.2068047 32.1349553 47.8739859 34.87536"></polygon>
                    <path d="M80.3702965,40.1851482 C80.3702965,62.3787671 62.3787671,80.3723294 40.1831153,80.3723294 C17.9894965,80.3723294 0,62.3787671 0,40.1851482 C0,17.9915294 17.9894965,0 40.1831153,0 C62.3787671,0 80.3702965,17.9915294 80.3702965,40.1851482" id="Fill-37" fill="#6A37A1"></path>
                    <path d="M75.9717741,39.9691482 C75.9717741,59.4121976 60.2103812,75.1756235 40.7652988,75.1756235 C21.3202165,75.1756235 5.55882353,59.4121976 5.55882353,39.9691482 C5.55882353,20.5260988 21.3202165,4.76470588 40.7652988,4.76470588 C60.2103812,4.76470588 75.9717741,20.5260988 75.9717741,39.9691482" id="Fill-38" fill="#6A37A1"></path>
                    <path d="M69.2772988,39.7983812 C69.2772988,55.6390588 56.4352094,68.4791153 40.5945318,68.4791153 C24.7538541,68.4791153 11.9117647,55.6390588 11.9117647,39.7983812 C11.9117647,23.9577035 24.7538541,11.1176471 40.5945318,11.1176471 C56.4352094,11.1176471 69.2772988,23.9577035 69.2772988,39.7983812" id="Fill-39" fill="#6A37A1"></path>
                    <path d="M51.9485082,56.7724235 C36.1078306,56.7724235 23.2677741,43.9303341 23.2677741,28.0896565 C23.2677741,23.0886212 24.5485271,18.3884612 26.7989929,14.2941176 C17.9272376,19.1731765 11.9117647,28.6060235 11.9117647,39.4456659 C11.9117647,55.2863435 24.7518212,68.1264 40.5924988,68.1264 C51.4341741,68.1264 60.8670212,62.11296 65.7440471,53.2391718 C61.6497035,55.4896376 56.9495435,56.7724235 51.9485082,56.7724235" id="Fill-40" fill="#5B2D8C"></path>
                </g>
                <g id="astronaut-with-rocket" transform="translate(194.000000, 112.000000)">
                    <polygon id="Fill-10" fill="#FFFFFF" points="4.38541667 57.4086379 3.36841592 54.0404601 0 53.0223435 3.36841592 52.0060515 4.38541667 48.6378738 5.4015053 52.0060515 8.77083333 53.0223435 5.4015053 54.0404601"></polygon>
                    <polygon id="Fill-14" fill="#FFFFFF" points="106.844697 6.39442331 103.438093 5.07081842 100.450326 7.17607973 101.774117 3.76900517 99.6685606 0.781656427 103.075164 2.10526131 106.063879 0 104.739141 3.40707456"></polygon>
                    <polygon id="Fill-15" fill="#FFFFFF" points="258.340909 80.5480916 254.934305 79.2243119 251.946539 81.3289037 253.270329 77.9223268 251.164773 74.933636 254.571376 76.2583632 257.560091 74.1528239 256.235353 77.5603484"></polygon>
                    <polygon id="Fill-16" fill="#FFFFFF" points="409.171314 132.358804 409.98439 128.772051 407.445076 126.110112 411.031952 126.923377 413.692323 124.385382 412.8802 127.971181 415.418561 130.63312 411.831684 129.820809"></polygon>
                    <polygon id="Fill-17" fill="#FFFFFF" points="97.6751894 151.495017 96.6591008 148.126277 93.2897727 147.109178 96.6591008 146.09208 97.6751894 142.724252 98.691278 146.09208 102.060606 147.109178 98.691278 148.126277"></polygon>
                    <polygon id="Fill-18" fill="#FFFFFF" points="311.364583 187.375415 310.348495 184.006676 306.979167 182.989577 310.348495 181.972479 311.364583 178.604651 312.381584 181.972479 315.75 182.989577 312.381584 184.006676"></polygon>
                    <polygon id="Fill-19" fill="#FFFFFF" points="53.213009 31.8936877 49.3871841 29.7066696 45.4488636 31.6833975 47.6351891 27.858072 45.6572249 23.9202658 49.4830498 26.1063058 53.4223485 24.130556 51.236023 27.9558814"></polygon>
                    <polygon id="Fill-29" fill="#FFFFFF" points="354.421402 223.255814 355.328651 230.72166 362.793561 231.627907 355.328651 232.534154 354.421402 240 353.515147 232.534154 346.049242 231.627907 353.515147 230.72166"></polygon>
                    <polygon id="Fill-30" fill="#FFFFFF" points="42.6581439 215.282392 43.5643983 222.748238 51.030303 223.654485 43.5643983 224.560732 42.6581439 232.026578 41.7518896 224.560732 34.2859848 223.654485 41.7518896 222.748238"></polygon>
                    <path d="M420.905784,58.1245367 C420.869657,57.4033682 420.821813,56.6831728 420.763229,55.9629774 L420.30041,50.2325581 L414.616727,51.2145542 C413.902971,51.3381553 413.192145,51.472462 412.482295,51.6165011 C404.317553,53.2758702 396.439877,56.3561652 389.106061,60.5790404 L418.031233,82.923588 C420.304316,74.7912199 421.331499,66.4184622 420.905784,58.1245367" id="Fill-54" fill="#CF6F60"></path>
                    <polygon id="Fill-55" fill="#CF6F60" points="350.035985 108.438538 335.431206 111.618412 323.723485 126.263492 346.637475 127.574751"></polygon>
                    <polygon id="Fill-56" fill="#CF6F60" points="381.471665 133.156146 381.929924 147.836348 370.469598 162.657807 363.590909 141.21839"></polygon>
                    <path d="M390.269811,65.3820598 C373.540401,76.7104923 359.017205,94.1681141 350.535775,113.67008 L342.859848,131.315996 L351.801429,138.215657 L360.742046,145.116279 L375.98489,133.312306 C392.832954,120.267124 406.184069,101.905495 413.026515,82.9453572 L390.269811,65.3820598 Z" id="Fill-57" fill="#CF6F60"></path>
                    <path d="M389.389147,60.5980066 C371.493337,71.0448696 356.900763,88.5471221 349.528683,109.061755 L342.859848,127.625661 L354.026381,136.370001 L365.190995,145.116279 L381.315741,133.956799 C399.134798,121.625138 412.265236,102.976882 417.810606,82.8578235 L389.389147,60.5980066 Z" id="Fill-58" fill="#E9F8FF"></path>
                    <polygon id="Fill-59" fill="#CF6F60" points="348.29888 145.913621 346.049242 144.190572 365.327054 119.601329 367.577652 121.324378"></polygon>
                    <path d="M402.758263,97.1415259 C397.767881,103.581184 388.502642,104.755095 382.063874,99.7647693 C375.625105,94.7744436 374.450218,85.5102729 379.4406,79.070615 C384.430983,72.6319201 393.696222,71.457046 400.13499,76.4483347 C406.573758,81.4376973 407.748646,90.702831 402.758263,97.1415259" id="Fill-60" fill="#CF6F60"></path>
                    <path d="M388.609401,77.3421927 C386.026494,77.8111053 383.599979,79.163628 381.864118,81.3569596 C378.109724,86.0993495 378.993682,92.9247386 383.837968,96.5999482 C387.286377,99.2174887 391.809136,99.5209027 395.484848,97.7727052 C393.382776,95.2750085 391.562405,92.4615329 390.103388,89.2742588 C388.557917,85.7379159 388.0256,81.4768034 388.609401,77.3421927" id="Fill-61" fill="#1DAAEB"></path>
                    <path d="M398.296182,79.709693 C395.653445,77.6467178 392.388481,76.96535 389.340458,77.5354741 C388.747814,81.852128 389.288195,86.3028704 390.857074,89.9947716 C392.33819,93.3231442 394.186134,96.2621638 396.320046,98.8704319 C397.828773,98.1324489 399.202405,97.0537821 400.29993,95.6274786 C404.110205,90.6751462 403.213844,83.5476016 398.296182,79.709693" id="Fill-62" fill="#1DCCEB"></path>
                    <path d="M148.306818,83.7209302 L194.635462,83.7209302 C228.367768,83.7209302 255.713673,111.208607 255.713673,145.116764 C255.713673,179.023951 283.058614,206.511628 316.791883,206.511628 L333.799785,206.511628 C369.188717,206.511628 397.876894,177.67472 397.876894,142.101348 L397.876894,110.78988" id="Stroke-63" stroke="#CFDDE3" stroke-width="2"></path>
                    <path d="M161.807822,134.445858 L136.161321,149.146615 C124.743332,155.691664 110.208199,151.693522 103.698052,140.216014 L81.6021905,101.267463 C74.3778781,88.5338928 78.8320377,72.1751343 91.4995755,64.9131634 L112.430473,52.9148724 C125.098972,45.6538677 141.371938,50.1302796 148.59625,62.8638499 L170.692112,101.812401 C177.204182,113.289909 173.225812,127.900809 161.807822,134.445858" id="Fill-64" fill="#91B7C9"></path>
                    <path d="M90.1003788,169.29615 L128.711569,174.61794 L130.765152,158.832734 L107.492824,155.624416 C99.021678,154.457304 91.2353797,160.577957 90.1003788,169.29615" id="Fill-65" fill="#DFE8E6"></path>
                    <polygon id="Fill-66" fill="#6E98AD" points="127.906806 183.388704 89.3030303 178.311236 90.5676401 169.036545 129.170455 174.114013"></polygon>
                    <path d="M113.087755,114.817276 L107.642045,155.5336 L131.035652,158.671096 L133.896257,137.287288 C134.563412,132.296515 137.778233,128.428474 141.92803,126.591539 C139.685623,123.633795 137.417298,120.666438 134.967544,117.75195 L113.087755,114.817276 Z" id="Fill-67" fill="#DFE8E6"></path>
                    <path d="M144.669559,97.2757475 L135.882748,118.193555 L135.549242,118.148784 C138.009087,121.100753 140.286756,124.104306 142.538401,127.100072 C145.842612,125.624575 149.736723,125.439651 153.42167,127.018317 L173.338506,135.548173 L182.592803,113.516928 L144.669559,97.2757475 Z" id="Fill-68" fill="#FFFFFF"></path>
                    <path d="M202.526515,104.87316 L187.292926,140.332226 L173.024621,134.358821 L182.206392,112.984475 C185.549246,105.20602 194.646242,101.573094 202.526515,104.87316" id="Fill-69" fill="#FFFFFF"></path>
                    <polygon id="Fill-70" fill="#ADCEDE" points="196.126782 144.318937 211.297348 108.198965 202.546501 104.451827 187.376894 140.571799"></polygon>
                    <path d="M155.071179,72.1814067 L131.51314,85.6501134 C126.92452,88.2723309 121.084024,86.6702375 118.468377,82.0700912 C115.850817,77.4718625 117.449852,71.6157364 122.037516,68.99256 L145.596511,55.5238534 C147.425073,54.4788014 148.064878,52.1365427 147.021489,50.3033873 L135.180784,29.4886364 C132.565137,24.8884901 134.164172,19.0333228 138.751836,16.4101464 C143.338543,13.7869701 149.180952,15.3900223 151.796599,19.9892098 L163.637304,40.8039607 C169.904337,51.8230271 166.061679,65.8976722 155.071179,72.1814067" id="Fill-71" fill="#FFFFFF"></path>
                    <path d="M84.6132617,112.58008 L108.357869,99.0289799 C112.981677,96.3897565 114.59331,90.497806 111.956092,85.871448 C109.318873,81.2441254 103.431398,79.6312666 98.808554,82.2695254 L75.0639468,95.8206257 C73.2209782,96.8730354 70.8652171,96.2276989 69.8145707,94.3833293 L57.8815417,73.4412459 C55.244323,68.8129586 49.356848,67.2010645 44.7330402,69.8393233 C40.1092324,72.4795113 38.4975988,78.3704972 41.1348175,82.9978199 L53.0678465,103.939903 C59.385219,115.025413 73.5361721,118.90129 84.6132617,112.58008" id="Fill-72" fill="#DFE8E6"></path>
                    <polygon id="Fill-73" fill="#FFFFFF" points="117.618937 35.0830565 116.594426 31.7170534 113.223485 30.7081647 116.588952 29.6828564 117.598866 26.3122924 118.623377 29.6782954 121.994318 30.6871842 118.627938 31.7115802"></polygon>
                    <path d="M162.659091,104.311193 L110.228217,133.953488 L92.3677779,102.901072 C87.6363434,94.6763204 90.5535776,84.1090404 98.8495529,79.4191863 L121.112452,66.8326502 C129.408427,62.1418369 140.066249,65.0340255 144.797684,73.2587767 L162.659091,104.311193 Z" id="Fill-74" fill="#FFFFFF"></path>
                    <path d="M124.386364,134.750831 L101.846095,96.3971229 C98.3103281,90.2128826 99.0405618,82.7184466 103.082546,77.3421927 L98.869883,79.7390575 C90.5541404,84.4708577 87.6312659,95.1304712 92.3724515,103.427088 L110.27433,134.750831 L124.386364,134.750831 Z" id="Fill-75" fill="#DFE8E6"></path>
                    <path d="M127.894024,71.9875285 L100.980649,87.5415017 C97.5029163,89.5519122 93.0342839,88.3126446 91.051526,84.7871421 C89.0668514,81.2626108 90.2906223,76.7338455 93.7683548,74.723435 L120.68173,59.1694618 C124.160421,57.1590513 128.629053,58.3983188 130.611811,61.9238213 C132.595528,65.4483526 131.372715,69.977118 127.894024,71.9875285" id="Fill-76" fill="#ADCEDE"></path>
                    <path d="M127.008115,33.4589777 C135.511702,48.5608884 129.09294,68.4901559 112.671822,77.974584 C96.2516648,87.4580389 76.0471184,82.9041123 67.5444919,67.8041477 C59.0418653,52.7022371 65.4596671,32.7729695 81.8807848,23.2885415 C98.3009419,13.8041135 118.505488,18.3580401 127.008115,33.4589777" id="Fill-77" fill="#FFFFFF"></path>
                    <path d="M130.616554,43.8538206 C129.594033,54.333559 123.188864,64.5446109 112.67343,70.5324845 C96.2477495,79.8846986 76.0385503,75.3937934 67.5326004,60.5018366 C65.4971691,56.9379002 64.326652,53.1004793 63.9326356,49.1958867 C63.3589092,55.0858816 64.4765705,61.0603209 67.5364444,66.4187001 C76.0414334,81.3096974 96.2515935,85.8006026 112.676313,76.4483885 C125.170478,69.3339502 131.866835,56.2594665 130.616554,43.8538206" id="Fill-78" fill="#DFE8E6"></path>
                    <path d="M115.849131,33.4775061 L120.943511,42.4519837 C124.800754,49.2446863 122.421123,57.9785769 115.658877,61.8512516 L98.8208644,71.4960744 C92.0508921,75.3745699 83.3561617,72.9851916 79.4998851,66.192489 L74.4055051,57.2180115 C70.5501942,50.4253089 72.9288592,41.6914183 79.6988315,37.813893 L96.5368438,28.1681001 C103.298124,24.2944552 111.992855,26.6848035 115.849131,33.4775061" id="Fill-79" fill="#1990C7"></path>
                    <path d="M116.005723,33.4899184 L118.804924,38.4110601 C113.603915,43.5100392 107.016874,48.4846293 99.4382878,52.8178384 C91.8616401,57.1500757 84.2365298,60.3015888 77.2113869,62.192691 L74.4121854,57.2715494 C70.5429289,50.4670798 72.9301981,41.7180595 79.7246589,37.8338172 L96.6235782,28.1713149 C103.409316,24.2909597 112.135497,26.6854488 116.005723,33.4899184" id="Fill-80" fill="#19ADC7"></path>
                    <path d="M73.3769027,77.5362118 L73.3769027,77.5362118 C71.1282595,78.7953147 68.2397664,78.0188047 66.9581363,75.8106341 L61.2129979,65.9132131 C59.9304027,63.7050424 60.7217707,60.8663722 62.9704138,59.6072693 C65.2180919,58.3472183 68.1075501,59.1237283 69.3891801,61.332847 L75.1333535,71.2293199 C76.4159487,73.4384387 75.6255458,76.2761608 73.3769027,77.5362118" id="Fill-81" fill="#6E98AD"></path>
                    <path d="M133.178679,43.2498858 L133.178679,43.2498858 C130.930041,44.5099113 128.041554,43.733417 126.758962,41.5243431 L121.014801,31.6280712 C119.731244,29.4189973 120.52261,26.5813329 122.771248,25.3213074 C125.019886,24.061282 127.908373,24.8387243 129.190966,27.0477982 L134.935126,36.9440701 C136.216754,39.152196 135.426352,41.9908085 133.178679,43.2498858" id="Fill-82" fill="#ADCEDE"></path>
                    <path d="M86.1136364,79.7342193 L87.7083333,78.1395349 L86.1136364,79.7342193 Z" id="Fill-83" fill="#ADCEDE"></path>
                    <polygon id="Fill-84" fill="#ADCEDE" points="144.320076 96.5802556 112.781274 114.817276 102.857955 97.1729272 134.396756 78.9368771"></polygon>
                    <path d="M139.914048,93.3046074 C140.786387,94.8341579 140.253564,96.7816613 138.723782,97.6538681 C137.194001,98.5260749 135.246203,97.9933322 134.373864,96.4637817 C133.501526,94.93325 134.034349,92.9867277 135.563149,92.1135398 C137.093912,91.241333 139.040729,91.7740758 139.914048,93.3046074" id="Fill-85" fill="#FFFFFF"></path>
                    <path d="M133.000057,85.9192897 C133.326882,86.4929289 133.127555,87.2227702 132.553815,87.5495381 C131.980076,87.8781013 131.250107,87.6779112 130.923282,87.1033743 C130.594662,86.5306328 130.794887,85.7998938 131.369524,85.4731259 C131.942365,85.1454604 132.673232,85.3456506 133.000057,85.9192897" id="Fill-86" fill="#FFFFFF"></path>
                    <polygon id="Fill-87" fill="#FFFFFF" points="123.589015 91.5353499 110.845109 98.8704319 110.034091 97.4347498 122.777997 90.0996678"></polygon>
                    <polygon id="Fill-88" fill="#FFFFFF" points="126.778409 96.3203525 114.034503 103.654485 113.223485 102.218803 125.967391 94.8837209"></polygon>
                    <polygon id="Fill-89" fill="#FFFFFF" points="129.170455 101.103456 116.426549 108.438538 115.61553 107.002856 128.359436 99.6677741"></polygon>
                    <path d="M63.7486071,87.5116891 L50.0551471,95.2589433 C48.5028054,96.1375372 46.5258751,95.6000893 45.640195,94.0601677 L45.077279,93.0805641 C44.1915989,91.5396895 44.7324209,89.5795294 46.2847626,88.7009355 L59.9782227,80.9536813 C61.531525,80.0750874 63.5074946,80.6125353 64.3931748,82.1524569 L64.9570514,83.1330134 C65.8427315,84.6729351 65.3009488,86.6340481 63.7486071,87.5116891" id="Fill-90" fill="#6E98AD"></path>
                    <path d="M159.430444,33.2928929 L145.736182,41.0394554 C144.183858,41.9180789 142.206951,41.3815658 141.321281,39.8406393 L140.759332,38.8610027 C139.873662,37.3210292 140.413517,35.35985 141.965841,34.4812265 L155.660103,26.734664 C157.212427,25.8560404 159.189334,26.3925535 160.075004,27.9325271 L160.638874,28.9131166 C161.524544,30.4540431 160.982768,32.4142694 159.430444,33.2928929" id="Fill-91" fill="#ADCEDE"></path>
                    <path d="M134.99704,138.734642 L108.727425,137.586198 C107.17565,137.518857 105.978063,136.293971 106.050466,134.85068 C106.122869,133.4083 107.439823,132.293527 108.991598,132.361778 L135.261214,133.509312 C136.812011,133.577564 138.010576,134.802449 137.938173,136.24483 C137.864791,137.68812 136.547837,138.801984 134.99704,138.734642" id="Fill-92" fill="#6E98AD"></path>
                    <path d="M155.878643,126.884772 L167.919985,103.774843 C168.630831,102.410627 168.11994,100.716548 166.777655,99.993572 C165.43537,99.2705962 163.771625,99.7911777 163.060778,101.156366 L151.019437,124.265322 C150.30859,125.630511 150.819481,127.322644 152.16081,128.04562 C153.504052,128.769569 155.167797,128.248987 155.878643,126.884772" id="Fill-93" fill="#ADCEDE"></path>
                </g>
            </g>
        </g>
    </g>
</svg>