<?xml version="1.0" encoding="UTF-8"?>
<svg width="375px" height="365px" viewBox="0 0 375 365" version="1.1" xmlns="http://www.w3.org/2000/svg" xmlns:xlink="http://www.w3.org/1999/xlink">
    <!-- Generator: Sketch 46.2 (44496) - http://www.bohemiancoding.com/sketch -->
    <title>cosmos-banner-small</title>
    <desc>Created with Sketch.</desc>
    <defs></defs>
    <g id="Page-1" stroke="none" stroke-width="1" fill="none" fill-rule="evenodd">
        <g id="cosmos-banner-small">
            <polygon id="Fill-1" fill="#102037" points="0 365 375 365 375 0 0 0"></polygon>
            <g id="left" transform="translate(0.000000, 194.000000)">
                <path d="M1.35508852e-14,171 L7.49400542e-15,101.964521 L0,31.2402323 C44.5924594,25.9507174 126.727486,31.1891293 145.005716,35.0302796 C262.448565,59.695641 355.573143,119.29565 360,171 L1.35508852e-14,171 Z" id="Fill-6" fill="#142946"></path>
                <path d="M0,171 L0,99.9446819 C23.084667,97.3379899 47.8762574,95.9498054 73.674344,96.0013873 C197.691155,96.2611063 298.276029,129.795626 299,171 L0,171 Z" id="Fill-8" fill="#1B3556"></path>
                <g id="purple-moon" transform="translate(40.000000, 0.000000)">
                    <polygon id="Fill-36" fill="#FFFFFF" points="22.1959247 20.4634071 20.8764706 16.9327906 17.2058824 16.0782776 20.7374776 14.7588235 21.5919906 11.0882353 22.9104659 14.6178729 26.5810541 15.4723859 23.0504376 16.79184"></polygon>
                    <path d="M38.6968094,19.3484047 C38.6968094,30.0342212 30.0342212,38.6977882 19.3474259,38.6977882 C8.66160941,38.6977882 0,30.0342212 0,19.3484047 C0,8.66258824 8.66160941,0 19.3474259,0 C30.0342212,0 38.6968094,8.66258824 38.6968094,19.3484047" id="Fill-37" fill="#6A37A1"></path>
                    <path d="M36.5790024,19.2444047 C36.5790024,28.6058729 28.9901835,36.1956706 19.6277365,36.1956706 C10.2652894,36.1956706 2.67647059,28.6058729 2.67647059,19.2444047 C2.67647059,9.88293647 10.2652894,2.29411765 19.6277365,2.29411765 C28.9901835,2.29411765 36.5790024,9.88293647 36.5790024,19.2444047" id="Fill-38" fill="#6A37A1"></path>
                    <path d="M33.3557365,19.1621835 C33.3557365,26.7891765 27.1725082,32.9714259 19.5455153,32.9714259 C11.9185224,32.9714259 5.73529412,26.7891765 5.73529412,19.1621835 C5.73529412,11.5351906 11.9185224,5.35294118 19.5455153,5.35294118 C27.1725082,5.35294118 33.3557365,11.5351906 33.3557365,19.1621835" id="Fill-39" fill="#6A37A1"></path>
                    <path d="M25.0122447,27.3348706 C17.3852518,27.3348706 11.2030024,21.1516424 11.2030024,13.5246494 C11.2030024,11.1167435 11.8196612,8.85370353 12.9032188,6.88235294 C8.63163294,9.23152941 5.73529412,13.7732706 5.73529412,18.9923576 C5.73529412,26.6193506 11.9175435,32.8016 19.5445365,32.8016 C24.7646024,32.8016 29.3063435,29.90624 31.6545412,25.6336753 C29.6831906,26.7172329 27.4201506,27.3348706 25.0122447,27.3348706" id="Fill-40" fill="#5B2D8C"></path>
                </g>
                <g id="astronaut-with-rocket" transform="translate(32.000000, 53.000000)">
                    <polygon id="Fill-10" fill="#FFFFFF" points="2.08333333 27.5083056 1.60019759 25.8943871 0 25.4065396 1.60019759 24.9195664 2.08333333 23.3056478 2.56603577 24.9195664 4.16666667 25.4065396 2.56603577 25.8943871"></polygon>
                    <polygon id="Fill-14" fill="#FFFFFF" points="50.7575758 3.0639945 49.1392367 2.42976716 47.71987 3.43853821 48.3487489 1.80598165 47.3484848 0.374543705 48.9668239 1.00877104 50.3866407 0 49.7573117 1.63255656"></polygon>
                    <polygon id="Fill-15" fill="#FFFFFF" points="122.727273 38.5959606 121.108934 37.9616495 119.689567 38.9700997 120.318446 37.3377816 119.318182 35.9057006 120.936521 36.5404657 122.356338 35.5315615 121.727009 37.1643336"></polygon>
                    <polygon id="Fill-16" fill="#FFFFFF" points="194.380672 63.4219269 194.766931 61.7032745 193.560606 60.4277622 195.264585 60.8174513 196.528419 59.6013289 196.142613 61.3195244 197.348485 62.5950368 195.644505 62.2058045"></polygon>
                    <polygon id="Fill-17" fill="#FFFFFF" points="46.4015152 72.5913621 45.9188127 70.9771744 44.3181818 70.4898147 45.9188127 70.002455 46.4015152 68.3887043 46.8842176 70.002455 48.4848485 70.4898147 46.8842176 70.9771744"></polygon>
                    <polygon id="Fill-18" fill="#FFFFFF" points="147.916667 89.7840532 147.433964 88.1698654 145.833333 87.6825057 147.433964 87.195146 147.916667 85.5813953 148.399802 87.195146 150 87.6825057 148.399802 88.1698654"></polygon>
                    <polygon id="Fill-19" fill="#FFFFFF" points="25.2793392 15.282392 23.4618452 14.2344459 21.5909091 15.181628 22.6295435 13.3486595 21.689893 11.461794 23.5073871 12.5092715 25.3787879 11.5625581 24.3401535 13.3955265"></polygon>
                    <polygon id="Fill-29" fill="#FFFFFF" points="168.371212 106.976744 168.802209 110.554129 172.348485 110.988372 168.802209 111.422616 168.371212 115 167.940687 111.422616 164.393939 110.988372 167.940687 110.554129"></polygon>
                    <polygon id="Fill-30" fill="#FFFFFF" points="20.2651515 103.156146 20.6956762 106.733531 24.2424242 107.167774 20.6956762 107.602018 20.2651515 111.179402 19.8346269 107.602018 16.2878788 107.167774 19.8346269 106.733531"></polygon>
                    <path d="M199.955242,27.8513405 C199.938079,27.5057806 199.915351,27.160687 199.887519,26.8155934 L199.667653,24.0697674 L196.967566,24.5403072 C196.62849,24.5995328 196.290805,24.6638881 195.953584,24.7329068 C192.074847,25.5280211 188.332483,27.0039958 184.848485,29.0274569 L198.589659,39.7342193 C199.669509,35.8374595 200.157482,31.8255132 199.955242,27.8513405" id="Fill-54" fill="#CF6F60"></path>
                    <polygon id="Fill-55" fill="#CF6F60" points="166.287879 51.9601329 159.349741 53.4838224 153.787879 60.5012566 164.673385 61.1295681"></polygon>
                    <polygon id="Fill-56" fill="#CF6F60" points="181.221693 63.8039867 181.439394 70.8382501 175.995058 77.9401993 172.727273 67.667145"></polygon>
                    <path d="M185.401335,31.3289037 C177.453872,36.7571109 170.554492,45.1222213 166.525309,54.4669132 L162.878788,62.9222483 L167.12657,66.2283358 L171.373893,69.5348837 L178.61515,63.8788133 C186.618981,57.627997 192.961553,48.8297163 196.212121,39.7446503 L185.401335,31.3289037 Z" id="Fill-57" fill="#CF6F60"></path>
                    <path d="M184.982968,29.0365449 C176.481395,34.0423334 169.549056,42.4288293 166.04688,52.2587578 L162.878788,61.1539626 L168.183554,65.3439586 L173.487409,69.5348837 L181.14762,64.1876331 C189.612731,58.2787121 195.850469,49.3430892 198.484848,39.7027071 L184.982968,29.0365449 Z" id="Fill-58" fill="#E9F8FF"></path>
                    <polygon id="Fill-59" fill="#CF6F60" points="165.462651 69.9169435 164.393939 69.091316 173.552045 57.3089701 174.621212 58.1345977"></polygon>
                    <path d="M191.334092,46.5469812 C188.963364,49.6326506 184.561825,50.1951496 181.503028,47.8039519 C178.444231,45.4127542 177.886089,40.9736725 180.256817,37.888003 C182.627545,34.802795 187.029084,34.2398346 190.087881,36.6314937 C193.146679,39.0222299 193.70482,43.4617732 191.334092,46.5469812" id="Fill-60" fill="#CF6F60"></path>
                    <path d="M184.612542,37.0598007 C183.385508,37.284488 182.232769,37.9325718 181.408132,38.9835431 C179.624572,41.2559383 180.044504,44.5264373 182.345828,46.2874752 C183.984027,47.5417133 186.132606,47.6870992 187.878788,46.8494213 C186.880179,45.6526082 186.015394,44.3044845 185.322274,42.777249 C184.588084,41.0827514 184.335202,39.0409683 184.612542,37.0598007" id="Fill-61" fill="#1DAAEB"></path>
                    <path d="M189.214338,38.1942279 C187.958881,37.205719 186.407829,36.8792302 184.959837,37.1524147 C184.678296,39.2208114 184.935009,41.3534587 185.68032,43.1224947 C186.383938,44.7173399 187.261821,46.1256201 188.275556,47.3754153 C188.992291,47.0217985 189.644848,46.5049373 190.166237,45.8215002 C191.976344,43.4485076 191.55052,40.0332258 189.214338,38.1942279" id="Fill-62" fill="#1DCCEB"></path>
                    <path d="M70.4545455,40.1162791 L92.4634024,40.1162791 C108.488251,40.1162791 121.479179,53.2874577 121.479179,69.5351159 C121.479179,85.7823098 134.46965,98.9534884 150.494956,98.9534884 L158.57472,98.9534884 C175.386564,98.9534884 189.015152,85.1358032 189.015152,68.0902294 L189.015152,53.0868177" id="Stroke-63" stroke="#CFDDE3" stroke-width="2"></path>
                    <path d="M76.8683241,64.4219738 L64.684713,71.4660864 C59.26049,74.6022558 52.3554392,72.6864794 49.2627325,67.18684 L38.7658862,48.5239927 C35.3339088,42.4224903 37.4498992,34.5839185 43.4677318,31.1042241 L53.4111512,25.355043 C59.4294405,21.8758116 67.1600655,24.020759 70.5920429,30.1222614 L81.0888892,48.7851087 C84.1825091,54.2847481 82.2925471,61.2858043 76.8683241,64.4219738" id="Fill-64" fill="#91B7C9"></path>
                    <path d="M42.8030303,81.1210719 L61.1456387,83.6710963 L62.1212121,76.1073519 L51.0654747,74.5700324 C47.0411772,74.0107916 43.3422231,76.9436043 42.8030303,81.1210719" id="Fill-65" fill="#DFE8E6"></path>
                    <polygon id="Fill-66" fill="#6E98AD" points="60.7633285 87.8737542 42.4242424 85.4408006 43.0250072 80.9966777 61.3636364 83.4296313"></polygon>
                    <path d="M53.7233988,55.0166113 L51.1363636,74.5265165 L62.249716,76.0299003 L63.6086733,65.7834923 C63.9256114,63.3920803 65.4528423,61.5386439 67.4242424,60.6584459 C66.3589658,59.2411934 65.2813765,57.8193351 64.1175983,56.4228094 L53.7233988,55.0166113 Z" id="Fill-67" fill="#DFE8E6"></path>
                    <path d="M68.7266314,46.6112957 L64.5523743,56.634412 L64.3939394,56.6129592 C65.5625116,58.0274442 66.6445398,59.4666466 67.7142046,60.902118 C69.2839011,60.1951087 71.1338351,60.1064993 72.8844038,60.8629434 L82.3460836,64.9501661 L86.7424242,54.3935282 L68.7266314,46.6112957 Z" id="Fill-68" fill="#FFFFFF"></path>
                    <path d="M96.2121212,50.2517225 L88.9752615,67.2425249 L82.1969697,64.3802685 L86.5588561,54.1383942 C88.1469104,50.4112178 92.4685234,48.6704409 96.2121212,50.2517225" id="Fill-69" fill="#FFFFFF"></path>
                    <polygon id="Fill-70" fill="#ADCEDE" points="93.1718681 69.1528239 100.378788 51.8453376 96.2216156 50.0498339 89.0151515 67.3573202"></polygon>
                    <path d="M73.6680184,34.5869241 L62.476551,41.0406793 C60.2966841,42.2971586 57.5221015,41.5294888 56.2795138,39.3252521 C55.0360174,37.1219341 55.7956542,34.3158737 57.9750668,33.058935 L69.1669886,26.6051798 C70.0356641,26.1044257 70.3396097,24.9820934 69.8439376,24.1037064 L64.2188997,14.1299716 C62.976312,11.9257349 63.7359488,9.12013382 65.9153614,7.86319516 C68.0943196,6.60625649 70.8698108,7.37438567 72.1123985,9.57816301 L77.7374364,19.5518978 C80.7146493,24.8318672 78.8891585,31.5759679 73.6680184,34.5869241" id="Fill-71" fill="#FFFFFF"></path>
                    <path d="M40.1963239,53.9446218 L51.4764223,47.4513862 C53.6730055,46.1867583 54.4386272,43.363532 53.1857918,41.1467355 C51.9329563,38.9294767 49.136056,38.1566486 46.9399306,39.4208142 L35.6598322,45.9140498 C34.7843127,46.4183294 33.6651863,46.1091057 33.1660669,45.2253453 L27.4971695,35.190597 C26.244334,32.972876 23.4474337,32.2005101 21.2508504,33.4646757 C19.0542672,34.7297659 18.2886455,37.5525299 19.541481,39.7697887 L25.2103784,49.804537 C28.2115055,55.1163439 34.9340485,56.973535 40.1963239,53.9446218" id="Fill-72" fill="#DFE8E6"></path>
                    <polygon id="Fill-73" fill="#FFFFFF" points="55.8759795 16.8106312 55.3892761 15.1977548 53.7878788 14.7143289 55.3866757 14.2230354 55.8664448 12.6079734 56.3531482 14.2208499 57.9545455 14.7042757 56.3553152 15.1951322"></polygon>
                    <path d="M77.2727273,49.9824469 L52.3649489,64.1860465 L43.8801795,49.3067635 C41.6324672,45.3657369 43.0183266,40.3022485 46.9594075,38.0550268 L57.5356066,32.0239782 C61.4766875,29.7762969 66.5397859,31.1621372 68.7874983,35.1031638 L77.2727273,49.9824469 Z" id="Fill-74" fill="#FFFFFF"></path>
                    <path d="M59.0909091,64.5681063 L48.3829428,46.190288 C46.7032438,43.2270063 47.0501481,39.6359223 48.9703307,37.0598007 L46.9690656,38.2082984 C43.018594,40.4756193 41.6300551,45.5833508 43.8823997,49.5588129 L52.3868552,64.5681063 L59.0909091,64.5681063 Z" id="Fill-75" fill="#DFE8E6"></path>
                    <path d="M60.7572562,34.4940241 L47.9718046,41.9469696 C46.3196752,42.9102913 44.1968095,42.3164756 43.2548817,40.6271723 C42.3120434,38.9383344 42.8934073,36.768301 44.5455367,35.8049793 L57.3309883,28.3520338 C58.983573,27.3887121 61.1064387,27.9825278 62.0483665,29.671831 C62.9907495,31.360669 62.4098409,33.5307024 60.7572562,34.4940241" id="Fill-76" fill="#ADCEDE"></path>
                    <path d="M60.3363966,16.0324268 C64.3761055,23.268759 61.3268122,32.8181997 53.5258061,37.3628215 C45.7252564,41.906977 36.1268971,39.7248871 32.0876446,32.4894875 C28.0483921,25.2531553 31.097229,15.7037146 38.8982351,11.1590928 C46.6987847,6.61447103 56.2971441,8.79656089 60.3363966,16.0324268" id="Fill-77" fill="#FFFFFF"></path>
                    <path d="M62.0506194,21.013289 C61.5648614,26.0348304 58.5220255,30.927626 53.52657,33.7968155 C45.7233964,38.2780848 36.1228268,36.1261927 32.0819954,28.9904634 C31.1150447,27.2827439 30.5589796,25.4439797 30.3717984,23.573029 C30.0992443,26.3953183 30.6301997,29.2580704 32.0838216,31.8256272 C36.1241964,38.9608967 45.7252226,41.1127888 53.5279396,36.6315195 C59.46341,33.2225178 62.6445774,26.957661 62.0506194,21.013289" id="Fill-78" fill="#DFE8E6"></path>
                    <path d="M55.0352167,16.041305 L57.4553497,20.3415755 C59.2877689,23.5964122 58.157303,27.7814014 54.9448345,29.6370581 L46.9457788,34.2585357 C43.72964,36.1169814 39.5991267,34.972071 37.7671663,31.7172343 L35.3470333,27.4169638 C33.5155317,24.1621272 34.6455388,19.9771379 37.8616777,18.1191571 L45.8607334,13.4972146 C49.0727431,11.6410931 53.2032563,12.7864684 55.0352167,16.041305" id="Fill-79" fill="#1990C7"></path>
                    <path d="M55.109607,16.0472526 L56.4393939,18.4052996 C53.9686056,20.8485605 50.8393701,23.2322182 47.2390916,25.3085476 C43.639734,27.3844113 40.0173538,28.8945113 36.6799938,29.8006645 L35.3502068,27.4426174 C33.5120803,24.1821424 34.6461749,19.9899035 37.8739472,18.1287041 L45.9019374,13.498755 C49.1255657,11.6394182 53.27102,12.7867776 55.109607,16.0472526" id="Fill-80" fill="#19ADC7"></path>
                    <path d="M34.8583861,37.1527682 L34.8583861,37.1527682 C33.790147,37.7560883 32.4179413,37.3840106 31.8090909,36.3259288 L29.079809,31.5834146 C28.4705001,30.5253328 28.8464469,29.1651367 29.9146859,28.5618165 C30.9824664,27.9580421 32.3551307,28.3301198 32.9639811,29.3886559 L35.6928045,34.1307158 C36.3021134,35.1892519 35.9266251,36.5489937 34.8583861,37.1527682" id="Fill-81" fill="#6E98AD"></path>
                    <path d="M63.2677812,20.7239036 L63.2677812,20.7239036 C62.1995445,21.3276658 60.8273417,20.9555957 60.2180342,19.8970811 L57.4892167,15.1551175 C56.8794507,14.0966029 57.2553966,12.7368887 58.3236333,12.1331265 C59.39187,11.5293643 60.7640728,11.9018887 61.3733803,12.9604033 L64.1021978,17.7023669 C64.7110469,18.7604272 64.3355594,20.1205958 63.2677812,20.7239036" id="Fill-82" fill="#ADCEDE"></path>
                    <path d="M40.9090909,38.2059801 L41.6666667,37.4418605 L40.9090909,38.2059801 Z" id="Fill-83" fill="#ADCEDE"></path>
                    <polygon id="Fill-84" fill="#ADCEDE" points="68.5606061 46.2780391 53.5778023 55.0166113 48.8636364 46.5620276 63.8464401 37.8239203"></polygon>
                    <path d="M66.4674814,44.7084577 C66.8818941,45.4413673 66.6287714,46.374546 65.9020343,46.7924785 C65.1752972,47.2104109 64.2499776,46.9551383 63.835565,46.2222287 C63.4211524,45.488849 63.674275,44.5561404 64.400546,44.1377378 C65.1277493,43.7198054 66.0526026,43.975078 66.4674814,44.7084577" id="Fill-85" fill="#FFFFFF"></path>
                    <path d="M63.182925,41.1696597 C63.3381862,41.4445284 63.2434939,41.7942441 62.9709337,41.9508203 C62.6983734,42.1082569 62.3515949,42.0123324 62.1963336,41.7370335 C62.0402193,41.4625949 62.1353381,41.1124491 62.4083249,40.9558728 C62.6804586,40.7988664 63.0276637,40.8947909 63.182925,41.1696597" id="Fill-86" fill="#FFFFFF"></path>
                    <polygon id="Fill-87" fill="#FFFFFF" points="58.7121212 43.8606885 52.6580093 47.3754153 52.2727273 46.6874843 58.3268392 43.1727575"></polygon>
                    <polygon id="Fill-88" fill="#FFFFFF" points="60.2272727 46.1535023 54.1731608 49.6677741 53.7878788 48.9798431 59.8419907 45.4651163"></polygon>
                    <polygon id="Fill-89" fill="#FFFFFF" points="61.3636364 48.4454061 55.3095244 51.9601329 54.9242424 51.2722019 60.9783544 47.7574751"></polygon>
                    <path d="M30.2843739,41.9326844 L23.7791673,45.6449103 C23.0417128,46.0659032 22.1025535,45.8083761 21.6818029,45.070497 L21.4143843,44.6011036 C20.9936337,43.8627679 21.2505563,42.9235245 21.9880108,42.5025316 L28.4932174,38.7903056 C29.2311283,38.3693127 30.1698312,38.6268398 30.5905818,39.3647189 L30.8584567,39.8345689 C31.2792074,40.572448 31.0218284,41.5121481 30.2843739,41.9326844" id="Fill-90" fill="#6E98AD"></path>
                    <path d="M75.7389284,15.9528445 L69.2333406,19.664739 C68.4958946,20.0857461 67.5567462,19.828667 67.1360004,19.0903064 L66.8690413,18.6208971 C66.4482955,17.8829931 66.7047588,16.9432614 67.4422048,16.5222543 L73.9477925,12.8103598 C74.6852385,12.3893527 75.6243869,12.6464319 76.0451327,13.3843359 L76.3130045,13.8542017 C76.7337503,14.5925623 76.4763743,15.5318374 75.7389284,15.9528445" id="Fill-91" fill="#ADCEDE"></path>
                    <path d="M64.1316107,66.477016 L51.6519832,65.9267198 C50.9147979,65.8944521 50.345873,65.3075277 50.3802688,64.615951 C50.4146646,63.9248104 51.040296,63.3906482 51.7774814,63.423352 L64.2571088,63.9732121 C64.9938293,64.0059159 65.563219,64.5928403 65.5288232,65.2839809 C65.4939626,65.9755575 64.8683312,66.5092838 64.1316107,66.477016" id="Fill-92" fill="#6E98AD"></path>
                    <path d="M74.051612,60.798953 L79.7719642,49.7254455 C80.1096585,49.0717589 79.8669549,48.2600125 79.2292897,47.9135866 C78.5916245,47.5671607 77.8012469,47.816606 77.4635525,48.4707589 L71.7432004,59.5438001 C71.405506,60.197953 71.6482096,61.0087668 72.2854203,61.3551928 C72.92354,61.702085 73.7139176,61.4526397 74.051612,60.798953" id="Fill-93" fill="#ADCEDE"></path>
                </g>
            </g>
        </g>
    </g>
</svg>