<?xml version="1.0" encoding="UTF-8"?>
<svg viewBox="0 0 1220 254" version="1.1" xmlns="http://www.w3.org/2000/svg" xmlns:xlink="http://www.w3.org/1999/xlink">
    <!-- Generator: Sketch 46.2 (44496) - http://www.bohemiancoding.com/sketch -->
    <title>explore-banner</title>
    <desc>Created with Sketch.</desc>
    <defs></defs>
    <g id="Explore-Skill-Sets" stroke="none" stroke-width="1" fill="none" fill-rule="evenodd">
        <g id="explore-banner">
            <polygon id="Fill-3" fill="#01579B" points="1185.76462 6.35689331 1180.05847 30.1366066 1158.05033 40.2741507 1123 92.3088181 1123 167.744606 1183.31902 185 1220 100.645406 1220 0"></polygon>
            <polygon id="Fill-4" fill="#0277BD" points="1007 244 1037.06504 185.730765 1089.15399 179.628446 1094.0714 150.153465 1158 134 1158 244"></polygon>
            <polygon id="Fill-5" fill="#FFFFFF" points="991 172 996 172 996 127 991 127"></polygon>
            <path d="M993,108 C999.074944,108 1004,112.701358 1004,118.500376 C1004,124.298642 999.075733,129 993.000788,129 L993,108 Z" id="Fill-6" fill="#D36231"></path>
            <path d="M992.999212,108 C986.925056,108 982,112.701358 982,118.500376 C982,124.299395 986.925056,129.000752 993,129 L992.999212,108 Z" id="Fill-8" fill="#EE783B"></path>
            <path d="M987.280413,118.644239 C989.017534,120.421891 991.866093,120.455965 993.643815,118.719637 C995.421536,116.98331 995.456337,114.134137 993.719941,112.355761 C991.983545,110.578109 989.134261,110.544035 987.355814,112.280363 C985.578093,114.01669 985.544017,116.865863 987.280413,118.644239" id="Fill-10" fill="#FFFFFF"></path>
            <polygon id="Fill-12" fill="#FFFFFF" points="886 240 928 240 928 162 886 162"></polygon>
            <polygon id="Fill-14" fill="#EE783B" points="882 162 929 162 929 148 882 148"></polygon>
            <polygon id="Fill-15" fill="#FFFFFF" points="999 240 1033 240 1033 168 999 168"></polygon>
            <polygon id="Fill-16" fill="#EE783B" points="996 168 1035 168 1035 155 996 155"></polygon>
            <polygon id="Fill-39" fill="#DBD8B9" points="1071 184 1086 184 1086 159 1071 159"></polygon>
            <polygon id="Fill-40" fill="#A59F7C" points="1047 153 1049 153 1049 134 1047 134"></polygon>
            <path d="M1051,142.961346 L1051,145 L1058,145 L1058,142.961346 L1058,136 C1054.13458,136 1051,139.116207 1051,142.961346" id="Fill-41" fill="#DBD8B9"></path>
            <path d="M1046,155.282011 L1046,158 L1053,158 L1053,155.282011 L1053,146 C1049.13425,146 1046,150.155676 1046,155.282011" id="Fill-42" fill="#DBD8B9"></path>
            <polygon id="Fill-43" fill="#A59F7C" points="1051 159 1058 159 1058 145 1051 145"></polygon>
            <polygon id="Fill-44" fill="#FFFFFF" points="1071 189 1071 200.943589 1068.66826 214 1055 214 1057.72089 189"></polygon>
            <polygon id="Fill-45" fill="#FFFFFF" points="1057 159 1086 159 1086 130 1057 130"></polygon>
            <polygon id="Fill-46" fill="#DBD8B9" points="1071 159 1085 159 1085 130 1071 130"></polygon>
            <path d="M1070.99962,132 C1064.37311,132 1059,137.373112 1059,143.999625 C1059,150.627639 1064.37311,156 1070.99962,156 C1077.62689,156 1083,150.627639 1083,143.999625 C1083,137.373112 1077.62689,132 1070.99962,132" id="Fill-47" fill="#242326"></path>
            <polygon id="Fill-48" fill="#FFFFFF" points="1056 184 1071 184 1071 159 1056 159"></polygon>
            <path d="M1056,184 L1056,159.40837 C1056,156.42167 1053.76118,154 1051,154 L1051,184 L1056,184 Z" id="Fill-49" fill="#DBD8B9"></path>
            <path d="M1051,184 L1051,154 C1048.23781,154 1046,156.42167 1046,159.40837 L1046,184 L1051,184 Z" id="Fill-50" fill="#FFFFFF"></path>
            <polygon id="Fill-51" fill="#DBD8B9" points="1046 198 1051 198 1051 184 1046 184"></polygon>
            <polygon id="Fill-52" fill="#A59F7C" points="1051 198 1056 198 1056 184 1051 184"></polygon>
            <path d="M1058,200 C1058,196.133395 1054.86589,193 1051,193 L1051,200 L1058,200 Z" id="Fill-53" fill="#DBD8B9"></path>
            <path d="M1051,193 C1047.13379,193 1044,196.133395 1044,200 L1051,200 L1051,193 Z" id="Fill-54" fill="#FFFFFF"></path>
            <path d="M1044,201 C1044,204.866605 1047.13379,208 1051,208 L1051,201 L1044,201 Z" id="Fill-55" fill="#DBD8B9"></path>
            <path d="M1051,201 L1051,208 C1054.86589,208 1058,204.866605 1058,201 L1051,201 Z" id="Fill-56" fill="#A59F7C"></path>
            <polygon id="Fill-57" fill="#00B0FF" points="1057 172 1066 172 1066 164 1057 164"></polygon>
            <polygon id="Fill-58" fill="#80D8FF" points="1057 179 1066 179 1066 171 1057 171"></polygon>
            <polygon id="Fill-59" fill="#80D8FF" points="1058.36349 189 1071 189 1071 184 1057 184"></polygon>
            <polygon id="Fill-60" fill="#DBD8B9" points="1055 232 1068 232 1068 213 1055 213"></polygon>
            <path d="M1070,237 C1070,230.371972 1064.62726,225 1058,225 L1058,237 L1070,237 Z" id="Fill-61" fill="#A59F7C"></path>
            <path d="M1058,225 C1051.37197,225 1046,230.372743 1046,237 L1058,237 L1058,225 Z" id="Fill-62" fill="#FFFFFF"></path>
            <path d="M1052,133.697925 C1052,134.417371 1051.4175,135 1050.69992,135 L1040.30008,135 C1039.58173,135 1039,134.417371 1039,133.697925 L1039,126.302075 C1039,125.582629 1039.58173,125 1040.30008,125 L1050.69992,125 C1051.4175,125 1052,125.582629 1052,126.302075 L1052,133.697925 Z" id="Fill-63" fill="#FFFFFF"></path>
            <path d="M1077,166.278038 C1077,166.676884 1076.65591,167 1076.23118,167 L1074.76882,167 C1074.34409,167 1074,166.676884 1074,166.278038 L1074,163.721962 C1074,163.323116 1074.34409,163 1074.76882,163 L1076.23118,163 C1076.65591,163 1077,163.323116 1077,163.721962 L1077,166.278038 Z" id="Fill-64" fill="#00B0FF"></path>
            <path d="M1081,166.278038 C1081,166.676884 1080.65591,167 1080.23118,167 L1078.76882,167 C1078.34409,167 1078,166.676884 1078,166.278038 L1078,163.721962 C1078,163.323116 1078.34409,163 1078.76882,163 L1080.23118,163 C1080.65591,163 1081,163.323116 1081,163.721962 L1081,166.278038 Z" id="Fill-65" fill="#80D8FF"></path>
            <path d="M1076.73279,181 C1075.22577,181 1074,179.868584 1074,178.47756 L1074,171.521696 C1074,170.131416 1075.22577,169 1076.73279,169 L1078.26721,169 C1079.77343,169 1081,170.131416 1081,171.521696 L1081,178.47756 C1081,179.868584 1079.77343,181 1078.26721,181 L1076.73279,181 Z" id="Fill-66" fill="#FFFFFF"></path>
            <path d="M1079,179.206465 C1079,179.644852 1078.65591,180 1078.23118,180 L1076.76882,180 C1076.34409,180 1076,179.644852 1076,179.206465 L1076,171.792742 C1076,171.355148 1076.34409,171 1076.76882,171 L1078.23118,171 C1078.65591,171 1079,171.355148 1079,171.792742 L1079,179.206465 Z" id="Fill-67" fill="#80D8FF"></path>
            <path d="M1072,137.5 C1072,138.328007 1071.32864,139 1070.49959,139 C1069.67136,139 1069,138.328007 1069,137.5 C1069,136.671181 1069.67136,136 1070.49959,136 C1071.32864,136 1072,136.671181 1072,137.5" id="Fill-68" fill="#FFFFFF"></path>
            <path d="M1070,143 C1070,145.210164 1068.20873,147 1066.0004,147 C1063.79046,147 1062,145.210164 1062,143 C1062,140.790646 1063.79046,139 1066.0004,139 C1068.20873,139 1070,140.790646 1070,143" id="Fill-69" fill="#FFFFFF"></path>
            <polygon id="Fill-70" fill="#000000" points="1057 161 1071 161 1071 159 1057 159"></polygon>
            <path d="M1045,129.499628 C1045,130.880453 1043.88062,132 1042.50074,132 C1041.11938,132 1040,130.880453 1040,129.499628 C1040,128.119547 1041.11938,127 1042.50074,127 C1043.88062,127 1045,128.119547 1045,129.499628" id="Fill-71" fill="#EE783B"></path>
            <path d="M1051,128.5 C1051,129.328459 1050.3278,130 1049.50042,130 C1048.67135,130 1048,129.328459 1048,128.5 C1048,127.671541 1048.67135,127 1049.50042,127 C1050.3278,127 1051,127.671541 1051,128.5" id="Fill-72" fill="#000000"></path>
            <path d="M1051,130.5 C1051,131.327615 1050.3278,132 1049.50042,132 C1048.67135,132 1048,131.327615 1048,130.5 C1048,129.671541 1048.67135,129 1049.50042,129 C1050.3278,129 1051,129.671541 1051,130.5" id="Fill-73" fill="#000000"></path>
            <polygon id="Fill-74" fill="#A59F7C" points="1092 153 1094 153 1094 134 1092 134"></polygon>
            <path d="M1091,142.961346 L1091,145 L1084,145 L1084,142.961346 L1084,136 C1087.86542,136 1091,139.116207 1091,142.961346" id="Fill-75" fill="#FFFFFF"></path>
            <path d="M1096,155.282011 L1096,158 L1089,158 L1089,155.282011 L1089,146 C1092.86575,146 1096,150.155676 1096,155.282011" id="Fill-76" fill="#FFFFFF"></path>
            <polygon id="Fill-77" fill="#A59F7C" points="1084 159 1091 159 1091 145 1084 145"></polygon>
            <polygon id="Fill-78" fill="#DBD8B9" points="1071 189 1071 200.943589 1073.33163 214 1087 214 1084.27925 189"></polygon>
            <path d="M1095,184 L1095,159.40837 C1095,156.42167 1092.7608,154 1090,154 L1090,184 L1095,184 Z" id="Fill-79" fill="#DBD8B9"></path>
            <path d="M1090,184 L1090,154 C1087.23812,154 1085,156.42167 1085,159.40837 L1085,184 L1090,184 Z" id="Fill-80" fill="#FFFFFF"></path>
            <polygon id="Fill-81" fill="#DBD8B9" points="1085 198 1090 198 1090 184 1085 184"></polygon>
            <polygon id="Fill-82" fill="#A59F7C" points="1090 198 1095 198 1095 184 1090 184"></polygon>
            <path d="M1097,200 C1097,196.133395 1093.86621,193 1090,193 L1090,200 L1097,200 Z" id="Fill-83" fill="#DBD8B9"></path>
            <path d="M1091,193 C1087.13411,193 1084,196.133395 1084,200 L1091,200 L1091,193 Z" id="Fill-84" fill="#FFFFFF"></path>
            <path d="M1084,201 C1084,204.866605 1087.13411,208 1091,208 L1091,201 L1084,201 Z" id="Fill-85" fill="#A59F7C"></path>
            <path d="M1090,201 L1090,208 C1093.86621,208 1097,204.866605 1097,201 L1090,201 Z" id="Fill-86" fill="#D6D6D6"></path>
            <polygon id="Fill-87" fill="#00B0FF" points="1083.63658 189 1071 189 1071 184 1085 184"></polygon>
            <polygon id="Fill-88" fill="#A59F7C" points="1073 232 1086 232 1086 213 1073 213"></polygon>
            <path d="M1072,237 C1072,230.371972 1077.37274,225 1084,225 L1084,237 L1072,237 Z" id="Fill-89" fill="#FFFFFF"></path>
            <path d="M1084,225 C1090.62726,225 1096,230.372743 1096,237 L1084,237 L1084,225 Z" id="Fill-90" fill="#DBD8B9"></path>
            <path d="M1090,133.697925 C1090,134.417371 1090.58173,135 1091.30008,135 L1101.69992,135 C1102.41827,135 1103,134.417371 1103,133.697925 L1103,126.302075 C1103,125.582629 1102.41827,125 1101.69992,125 L1091.30008,125 C1090.58173,125 1090,125.582629 1090,126.302075 L1090,133.697925 Z" id="Fill-91" fill="#FFFFFF"></path>
            <path d="M1100.79986,125 L1096,125 L1096,135 L1100.79986,135 C1101.46298,135 1102,134.416647 1102,133.697256 L1102,126.301975 C1102,125.583353 1101.46298,125 1100.79986,125" id="Fill-92" fill="#DBD8B9"></path>
            <polygon id="Fill-93" fill="#000000" points="1071 161 1085 161 1085 159 1071 159"></polygon>
            <path d="M1092,131.5 C1092,132.328189 1092.67249,133 1093.49956,133 C1094.32838,133 1095,132.328189 1095,131.5 C1095,130.671811 1094.32838,130 1093.49956,130 C1092.67249,130 1092,130.671811 1092,131.5" id="Fill-94" fill="#EE783B"></path>
            <path d="M1092,127.499563 C1092,128.328384 1092.67249,129 1093.49956,129 C1094.32838,129 1095,128.328384 1095,127.499563 C1095,126.672489 1094.32838,126 1093.49956,126 C1092.67249,126 1092,126.672489 1092,127.499563" id="Fill-95" fill="#EE783B"></path>
            <path d="M1098,131.5 C1098,132.328189 1098.67181,133 1099.5,133 C1100.32819,133 1101,132.328189 1101,131.5 C1101,130.671811 1100.32819,130 1099.5,130 C1098.67181,130 1098,130.671811 1098,131.5" id="Fill-96" fill="#00B0FF"></path>
            <path d="M1098,127.499563 C1098,128.328384 1098.67181,129 1099.5,129 C1100.32819,129 1101,128.328384 1101,127.499563 C1101,126.672489 1100.32819,126 1099.5,126 C1098.67181,126 1098,126.672489 1098,127.499563" id="Fill-97" fill="#00B0FF"></path>
            <g id="Group" transform="translate(953.500000, 54.000000) rotate(46.000000) translate(-953.500000, -54.000000) translate(930.000000, 10.000000)">
                <path d="M11.8050359,37.6157412 C11.8050359,28.5146155 18.9421252,21.0708542 28,20.3836912 C26.6375555,20.14606 25.2436228,20 23.8128257,20 C10.6614735,20 0,30.5049664 0,43.4641945 C0,49.9165642 2.64578419,55.7582064 6.9235833,60 L17.0935323,49.9786208 C13.8341105,46.8387097 11.8050359,42.4622079 11.8050359,37.6157412" id="Fill-130" fill="#40C4FF"></path>
                <path d="M12,38.4679077 C12,43.3807088 14.0457106,47.8171125 17.3318559,51 L41,27.5506572 C40.8412677,27.3933923 40.6902785,27.2299903 40.5269004,27.0773283 C40.5160601,27.0681225 40.5044456,27.0581496 40.4943796,27.0481768 C39.294983,25.9350483 37.9786666,24.9454304 36.5671108,24.0938986 C36.4896804,24.0471027 36.4130243,24.001074 36.3363682,23.9550453 C35.8803033,23.6865443 35.415721,23.4295505 34.9410728,23.1909681 C34.9279096,23.184831 34.9162951,23.179461 34.9039062,23.1733238 C33.4273089,22.4345625 31.8593437,21.8461617 30.2255627,21.4203958 C30.1171602,21.3920115 30.0103063,21.3643942 29.902678,21.3383113 C29.3831202,21.2101979 28.8596908,21.0943589 28.3277441,21 C19.1956052,21.6965683 12,29.2422135 12,38.4679077" id="Fill-131" fill="#80D8FF"></path>
                <path d="M23.5982338,66 C36.5222281,66 47,55.5287416 47,42.6120273 C47,40.6742184 46.7380934,38.8005254 46.2927768,37 C46.1757869,46.4220205 38.5065288,54.0261666 29.0514756,54.0261666 C24.3560269,54.0261666 20.1043852,52.1464392 16.9947166,49.1058368 L7,59.0943401 C11.2388105,63.3576705 17.1086874,66 23.5982338,66" id="Fill-132" fill="#00B0FF"></path>
                <path d="M17,50.0756538 C20.1841719,53.1187382 24.5376768,55 29.3456218,55 C39.0272046,55 46.8802071,47.3896468 47,37.9599353 C47,37.9591804 46.9992271,37.9584255 46.9992271,37.9576705 C46.0231084,34.0917228 44.0639153,30.6077649 41.3975578,27.769264 C41.3658706,27.7360475 41.3357292,27.702831 41.3048149,27.6703694 C41.0853234,27.4401186 40.8526934,27.2219466 40.6239277,27 L17,50.0756538 Z" id="Fill-133" fill="#40C4FF"></path>
                <path d="M40.0620224,0.0465226492 C37.9887916,-0.701704715 32.8967661,7.63709236 27.0755668,20.6068716 C27.2523362,20.6356495 27.4298675,20.6606409 27.6051131,20.6909335 C27.9670332,20.7553053 28.320572,20.8393673 28.6756347,20.9204 C31.2776498,16.1424988 33.4278363,13.4048045 34.5478838,13.8084535 C36.8809351,14.6513452 33.8583307,28.7820886 27.7963593,45.3710768 C21.7336259,61.9600651 14.9280039,74.7246119 12.5941906,73.8824775 C11.4733811,73.4780712 11.5937672,69.9989654 12.686385,64.6644375 C12.2033169,64.4175528 11.7240584,64.1623376 11.2592768,63.8836456 C7.34520603,77.5539413 5.8632384,87.2051655 7.93723114,87.9533929 C11.0055518,89.0613449 20.6844385,70.2806866 29.5549101,46.0064642 C38.4261435,21.7314845 43.1295811,1.15447471 40.0620224,0.0465226492" id="Fill-134" fill="#64CFFF"></path>
            </g>
            <g id="ball" transform="translate(1090.506199, 37.800580) rotate(-84.000000) translate(-1090.506199, -37.800580) translate(1082.506199, 22.300580)">
                <path d="M3.63907005,13.0933832 C3.63907005,9.94525304 5.83917921,7.37041446 8.63139781,7.13272094 C8.21140495,7.05052296 7.78170538,7 7.34064185,7 C3.28655067,7 -1.13686838e-13,10.6337265 -1.13686838e-13,15.1163959 C-1.13686838e-13,17.3483066 0.815600567,19.3689633 2.13429292,20.8362234 L5.26932418,17.3697723 C4.26456111,16.2836596 3.63907005,14.7698032 3.63907005,13.0933832" id="Fill-130-Copy" fill="#40C4FF"></path>
                <path d="M4,12.9606623 C4,14.6370822 4.62549106,16.1509386 5.63025414,17.2370514 L12.8669631,9.23531381 C12.8184296,9.18164952 12.7722635,9.12589102 12.7223095,9.0737974 C12.718995,9.07065608 12.7154437,9.06725297 12.712366,9.06384987 C12.3456417,8.68401145 11.9431682,8.34631911 11.5115747,8.05574664 C11.4878998,8.03977825 11.4644616,8.02407163 11.4410235,8.00836501 C11.3015783,7.91674306 11.1595288,7.82904776 11.0144016,7.74763511 C11.0103769,7.7455409 11.0068257,7.74370846 11.0030377,7.74161424 C10.5515572,7.48952299 10.0721403,7.28874003 9.57259975,7.1434538 C9.53945488,7.13376805 9.50678351,7.12434408 9.47387539,7.11544366 C9.31501676,7.0717269 9.15497438,7.03219857 8.99232777,7 C6.20010916,7.23769352 4,9.8125321 4,12.9606623" id="Fill-131-Copy" fill="#80D8FF"></path>
                <path d="M8.20634893,23.0642786 C12.2602034,23.0642786 15.546754,19.4302902 15.546754,14.9476209 C15.546754,14.2751158 15.4646021,13.6248617 15.3249201,13 C15.288224,16.2698565 12.8826167,18.9088305 9.916861,18.9088305 C8.444045,18.9088305 7.11043746,18.2564822 6.13503126,17.2012591 L3,20.6677101 C4.32958281,22.1472737 6.17078038,23.0642786 8.20634893,23.0642786" id="Fill-132-Copy" fill="#00B0FF"></path>
                <path d="M6,17.0017376 C6.97540619,18.0569607 8.30901374,18.709309 9.78182974,18.709309 C12.7475854,18.709309 15.1531928,16.070335 15.1898889,12.8004785 C15.1898889,12.8002167 15.1896521,12.7999549 15.1896521,12.7996932 C14.8906381,11.4591331 14.2904791,10.2510323 13.4736948,9.26675076 C13.4639881,9.25523258 13.4547549,9.24371439 13.4452849,9.23245798 C13.3780482,9.15261599 13.3067867,9.07696244 13.236709,9 L6,17.0017376 Z" id="Fill-133-Copy" fill="#40C4FF"></path>
                <path d="M13.273031,0.0160812307 C12.6288367,-0.242554446 11.0466427,2.63987211 9.23787973,7.12306502 C9.29280552,7.13301255 9.34796805,7.14165119 9.40242034,7.15212227 C9.51487615,7.17437332 9.62472772,7.20343056 9.73505279,7.2314407 C10.5435509,5.5798896 11.2116568,4.63356575 11.5596779,4.77309289 C12.2846036,5.06445069 11.34542,9.94894775 9.46184436,15.6831729 C7.57803196,21.4173981 5.46338921,25.8296495 4.7382268,25.5385535 C4.3899689,25.3987646 4.42737526,24.196161 4.76687343,22.3522038 C4.61677452,22.2668645 4.46785935,22.1786457 4.32344241,22.0823117 C3.10726241,26.8076484 2.64678546,30.1437345 3.29121644,30.4023701 C4.24460497,30.7853499 7.25202848,24.2935421 10.0082612,15.9028039 C12.7647307,7.51180387 14.2261828,0.399060983 13.273031,0.0160812307" id="Fill-134-Copy" fill="#64CFFF"></path>
            </g>
            <polygon id="Fill-135" fill="#DBD8B9" points="926 240 997 240 997 175 926 175"></polygon>
            <polygon id="Fill-136" fill="#EE783B" points="932 240 938 240 938 170 932 170"></polygon>
            <polygon id="Fill-137" fill="#EE783B" points="943 240 949 240 949 170 943 170"></polygon>
            <polygon id="Fill-138" fill="#EE783B" points="954 240 960 240 960 170 954 170"></polygon>
            <polygon id="Fill-139" fill="#EE783B" points="965 240 971 240 971 170 965 170"></polygon>
            <polygon id="Fill-140" fill="#EE783B" points="976 240 982 240 982 170 976 170"></polygon>
            <polygon id="Fill-141" fill="#EE783B" points="987 240 993 240 993 170 987 170"></polygon>
            <polygon id="Fill-146" fill="#03A9F4" points="1126 244.281558 1135.8941 111.955752 1220 72 1220 248"></polygon>
            <polygon id="Fill-149" fill="#80D8FF" points="1016 183 1027 183 1027 172 1016 172"></polygon>
            <polygon id="Fill-150" fill="#80D8FF" points="1016 199 1027 199 1027 188 1016 188"></polygon>
            <polygon id="Fill-151" fill="#80D8FF" points="1016 215 1027 215 1027 204 1016 204"></polygon>
            <polygon id="Fill-1" fill="#0277BD" points="34 44 88.8845528 63.3259115 113 148 64.7683494 133.815289"></polygon>
            <polygon id="Fill-2" fill="#01579B" points="0 30.1021311 0 246 153 246 122.749491 127.587736 75.4739263 105.901134 39.810605 13"></polygon>
            <polygon id="Fill-17" fill="#EE783B" points="106 181 115 181 115 122 106 122"></polygon>
            <polygon id="Fill-18" fill="#EE783B" points="168 181 177 181 177 122 168 122"></polygon>
            <path d="M189,133.831098 C189,137.238074 186.230795,140 182.814839,140 L100.184408,140 C96.7684523,140 94,137.238074 94,133.831098 L94,15.1681513 C94,11.7619261 96.7684523,9 100.184408,9 L182.814839,9 C186.230795,9 189,11.7619261 189,15.1681513 L189,133.831098 Z" id="Fill-19" stroke="#EE783B" fill="#FFFFFF"></path>
            <polygon id="Fill-20" fill="#80D8FF" points="100 41 126 41 126 15 100 15"></polygon>
            <polygon id="Fill-21" fill="#80D8FF" points="129 41 155 41 155 15 129 15"></polygon>
            <polygon id="Fill-22" fill="#80D8FF" points="157 41 183 41 183 15 157 15"></polygon>
            <polygon id="Fill-23" fill="#80D8FF" points="100 72 126 72 126 46 100 46"></polygon>
            <polygon id="Fill-24" fill="#80D8FF" points="129 72 155 72 155 46 129 46"></polygon>
            <polygon id="Fill-25" fill="#80D8FF" points="157 72 183 72 183 46 157 46"></polygon>
            <polygon id="Fill-26" fill="#03A9F4" points="100 103 126 103 126 77 100 77"></polygon>
            <polygon id="Fill-27" fill="#03A9F4" points="129 103 155 103 155 77 129 77"></polygon>
            <polygon id="Fill-28" fill="#03A9F4" points="157 103 183 103 183 77 157 77"></polygon>
            <polygon id="Fill-29" fill="#03A9F4" points="100 134 126 134 126 108 100 108"></polygon>
            <polygon id="Fill-30" fill="#03A9F4" points="129 134 155 134 155 108 129 108"></polygon>
            <polygon id="Fill-31" fill="#03A9F4" points="157 134 183 134 183 108 157 108"></polygon>
            <polygon id="Fill-32" fill="#F4F3DF" points="83 240 200 240 200 180 83 180"></polygon>
            <polygon id="Fill-33" fill="#EE783B" points="71 188 196 188 196 183 71 183"></polygon>
            <polygon id="Fill-34" fill="#EE783B" points="71 198 196 198 196 193 71 193"></polygon>
            <polygon id="Fill-35" fill="#EE783B" points="71 208 196 208 196 203 71 203"></polygon>
            <polygon id="Fill-36" fill="#EE783B" points="71 217 196 217 196 212 71 212"></polygon>
            <polygon id="Fill-37" fill="#EE783B" points="71 227 196 227 196 222 71 222"></polygon>
            <polygon id="Fill-38" fill="#EE783B" points="71 237 196 237 196 232 71 232"></polygon>
            <polygon id="Fill-98" fill="#DBD8B9" points="323.278457 105 326 103.952117 302.05493 43 279 43.0007442 279 45.8913537 300.058129 45.8913537"></polygon>
            <polygon id="Fill-99" fill="#D36231" points="277 49 275 49 275 70 277 70"></polygon>
            <path d="M275,101.001535 L327.167562,101 C330.941057,101 334,104.133618 334,107.999233 L275,108 L275,101.001535 Z" id="Fill-100" fill="#D36231"></path>
            <path d="M275,108.000767 L334,108 C334,111.865614 330.941806,114.998465 327.168311,114.999233 L275,115 L275,108.000767 Z" id="Fill-101" fill="#B54823"></path>
            <path d="M275,37 C279.418215,37 283,40.8050458 283,45.4996129 C283,50.1941801 279.418215,53.9992258 275.000729,54 L275,37 Z" id="Fill-102" fill="#D36231"></path>
            <path d="M275,64 C282.179004,64 287.999253,69.8205835 288,77 L275,77 L275,64 Z" id="Fill-103" fill="#DBD8B9"></path>
            <polygon id="Fill-104" fill="#DBD8B9" points="301.000747 143 275.000747 143 275 115.000766 327 115"></polygon>
            <polygon id="Fill-105" fill="#DBD8B9" points="288.262581 84 275 84 275 102 305 101.999231"></polygon>
            <polygon id="Fill-106" fill="#D36231" points="275 77 288 77 287.999253 84 275 84"></polygon>
            <polygon id="Fill-107" fill="#FFFFFF" points="225.721717 105 223 103.952874 246.944347 43 270 43 270 45.891319 248.941275 45.8920632"></polygon>
            <polygon id="Fill-108" fill="#EE783B" points="273 49 275 49 275 70 273 70"></polygon>
            <path d="M275,101 L222.831689,101.000767 C219.058194,101.000767 216,104.134386 216,108 L275,107.998465 L275,101 Z" id="Fill-109" fill="#EE783B"></path>
            <path d="M275,108 L216,108.001535 C216,111.867149 219.058943,115 222.832438,115 L275,114.999233 L275,108 Z" id="Fill-110" fill="#D36231"></path>
            <path d="M274.999271,37 C270.581785,37 267,40.8058199 267,45.4996129 C267,50.1941801 270.581785,54 275,54 L274.999271,37 Z" id="Fill-111" fill="#EE783B"></path>
            <path d="M276,64 C268.820249,64 263,69.8202492 263,77 L276,76.9992534 L276,64 Z" id="Fill-112" fill="#DBD8B9"></path>
            <polygon id="Fill-113" fill="#DBD8B9" points="249 143 275 142.999234 274.999253 115 223 115.000766"></polygon>
            <polygon id="Fill-114" fill="#DBD8B9" points="262.736321 84.0007687 276 84 276 101.999231 246 102"></polygon>
            <polygon id="Fill-115" fill="#EE783B" points="275 77 262 77.0008007 262 84 275 83.9991993"></polygon>
            <path d="M270.995701,45.9449244 C272.346141,47.328303 274.562468,47.3548237 275.945163,46.0037001 C277.327859,44.6532933 277.355097,42.4370205 276.00394,41.0550756 C274.653501,39.671697 272.437891,39.6451763 271.055195,40.9962999 C269.671783,42.3459899 269.645262,44.5622627 270.995701,45.9449244" id="Fill-116" fill="#FFFFFF"></path>
            <path d="M256.682262,31.8946708 C267.197974,23.2115926 282.043014,22.6794799 293.193714,30.5853645 C294.309316,31.3772777 294.18384,33.1583465 293.326795,34.0525607 C292.305491,35.1160501 290.857565,34.9703263 289.744244,34.1798851 C281.014104,27.9903031 268.62993,28.4348343 260.396374,35.2330708 C259.346932,36.1000538 257.914976,36.3495507 256.814583,35.3611311 C255.890618,34.530947 255.629778,32.7645978 256.682262,31.8946708" id="Fill-117" fill="#FFFFFF"></path>
            <path d="M250.673344,25.7930513 C257.382306,19.8854176 265.665997,16.4381041 274.611029,16.0354652 C283.498128,15.6343342 292.154999,18.6578965 299.202531,23.991732 C300.294985,24.8188761 300.192662,26.6164254 299.334197,27.5438522 C298.334286,28.6228342 296.879938,28.4999313 295.790493,27.6750492 C283.507909,18.3789145 265.911272,19.0318833 254.348714,29.2132206 C253.32247,30.1165192 251.881664,30.3472449 250.804258,29.3444175 C249.879584,28.4840972 249.644842,26.698612 250.673344,25.7930513" id="Fill-118" fill="#FFFFFF"></path>
            <path d="M333.133352,226 L383,226 C383,178.503885 334.647123,140 275,140 L275,140.006742 C307.104815,140.006742 333.128811,178.506881 333.133352,226" id="Fill-119" fill="#B5B08A"></path>
            <path d="M276,140.006742 L276,140 C216.353295,140 168,178.503885 168,226 L217.867055,226 C217.867055,178.506881 243.89541,140.006742 276,140.006742" id="Fill-120" fill="#B5B08A"></path>
            <path d="M333,226 C332.995469,178.503158 307.031169,140 275,140 L275,226 L333,226 Z" id="Fill-121" fill="#DBD8B9"></path>
            <path d="M276,140 C243.968831,140 218,178.503158 218,226 L276,226 L276,140 Z" id="Fill-122" fill="#F4F3DF"></path>
            <path d="M393.164916,226 L155.835084,226 C148.196469,226 142,232.26754 142,240 L407,240 C407,232.26754 400.803531,226 393.164916,226" id="Fill-123" fill="#40C4FF"></path>
            <path d="M344,207.499612 C344,201.14893 349.14893,196 355.499612,196 C361.85107,196 367,201.14893 367,207.499612 C367,213.85107 361.85107,219 355.499612,219 C349.14893,219 344,213.85107 344,207.499612" id="Fill-124" fill="#FFFFFF"></path>
            <path d="M335,179.999608 C335,176.133404 338.134363,173 342.000784,173 C345.86642,173 349,176.133404 349,179.999608 C349,183.865812 345.86642,187 342.000784,187 C338.134363,187 335,183.865812 335,179.999608" id="Fill-125" fill="#FFFFFF"></path>
            <polygon id="Fill-126" fill="#EE783B" points="228 219 246 219 246 209 228 209"></polygon>
            <polygon id="Fill-127" fill="#EE783B" points="252 219 261 219 261 209 252 209"></polygon>
            <path d="M266,193.000371 C266,196.866204 262.866204,200 258.999629,200 C255.133796,200 252,196.866204 252,193.000371 C252,189.134539 255.133796,186 258.999629,186 C262.866204,186 266,189.134539 266,193.000371" id="Fill-128" fill="#EE783B"></path>
            <path d="M266,173.000371 C266,176.866204 262.866204,180 258.999629,180 C255.133796,180 252,176.866204 252,173.000371 C252,169.134539 255.133796,166 258.999629,166 C262.866204,166 266,169.134539 266,173.000371" id="Fill-129" fill="#EE783B"></path>
            <polygon id="Fill-142" fill="#B54823" points="389 148 395 148 395 89 389 89"></polygon>
            <path d="M392,63 C399.731916,63 406,69.2680842 406,77 C406,84.7311486 399.731916,90.9992328 392.000767,91 L392,63 Z" id="Fill-143" fill="#D36231"></path>
            <path d="M391.999233,63 C384.268508,63.0007672 378.000767,69.2688514 378,77 C378.000767,84.7319158 384.268508,91 392,91 L391.999233,63 Z" id="Fill-144" fill="#EE783B"></path>
            <path d="M385.707001,77.191415 C388.022602,79.5624831 391.82131,79.6083223 394.192361,77.2927048 C396.562672,74.9778266 396.607772,71.1783508 394.292911,68.808022 C391.97731,66.4369538 388.179341,66.3925934 385.80829,68.7067322 C383.437239,71.0216104 383.39214,74.8210862 385.707001,77.191415" id="Fill-145" fill="#FFFFFF"></path>
            <polygon id="Fill-147" fill="#03A9F4" points="141 247 113.551887 188.671783 41.4419921 170.09389 31.4962155 147 0 147.785259 0 247"></polygon>
            <polygon id="Fill-148" fill="#03A9F4" points="0 254 1220 254 1220 240 0 240"></polygon>
            <path d="M405,211.041126 C405,213.779918 402.761841,216 400.000747,216 C397.238906,216 395,213.779918 395,211.041126 L395,176.960356 C395,174.221564 397.238906,172 400.000747,172 C402.761841,172 405,174.221564 405,176.960356 L405,211.041126 Z" id="Fill-152" fill="#80D8FF"></path>
            <path d="M212,214.999636 C212,217.20889 210.129557,219 207.822448,219 L181.177552,219 C178.870443,219 177,217.20889 177,214.999636 C177,212.790383 178.870443,211 181.177552,211 L207.822448,211 C210.129557,211 212,212.790383 212,214.999636" id="Fill-153" fill="#FFFFFF"></path>
        </g>
    </g>
</svg>
